<svg width="1332" height="421" viewBox="0 0 1332 421" fill="none" xmlns="http://www.w3.org/2000/svg">
<path d="M1001.26 181.575H809.091C811.641 98.3717 744.858 35.7009 670.727 34.07C670.184 34.0498 669.64 34.0347 669.102 34.0347C668.187 33.9995 667.272 33.9995 666.336 33.9995C616.956 33.9995 570.879 59.3849 544.61 102.112C538.725 111.127 531.437 118.945 523.118 125.323C507.441 137.328 397.625 144.194 377.255 144.194C361.538 144.194 346.383 140.152 333.06 132.788C329.212 130.653 325.511 128.242 322 125.569C327.286 140.268 330.369 156.019 330.857 172.419H523.536C520.986 253.448 585.878 319.914 666.19 319.994C666.22 319.994 666.251 319.994 666.286 319.994C666.296 319.994 666.301 319.994 666.311 319.994C666.321 319.994 666.326 319.994 666.336 319.994C667.272 319.994 668.187 319.995 669.102 319.959C669.535 319.959 669.967 319.944 670.395 319.929C720.907 318.499 765.213 290.632 789.44 249.788C795.053 241.679 801.823 234.581 809.463 228.747C825.14 216.686 934.494 209.82 954.864 209.82C970.692 209.82 985.881 213.953 999.225 221.453C1003.04 223.602 1006.7 226.019 1010.19 228.692C1004.76 213.635 1001.73 197.739 1001.26 181.58L1001.26 181.575Z" fill="#5DBEA9"/>
<path d="M754.054 265.276C802.85 216.44 802.85 137.261 754.054 88.4251C705.259 39.5892 626.147 39.5892 577.351 88.4251C528.556 137.261 528.556 216.44 577.351 265.276C626.147 314.111 705.259 314.111 754.054 265.276Z" fill="#F2F2F2"/>
<path d="M677.236 247H654.78C652.942 247 651.455 245.513 651.455 243.675V227.468C647.696 226.382 644.07 224.878 640.628 222.973L629.15 234.452C627.846 235.755 625.741 235.755 624.454 234.452L608.565 218.579C607.947 217.961 607.596 217.109 607.596 216.223C607.596 215.338 607.947 214.502 608.565 213.867L620.043 202.388C618.139 198.947 616.635 195.321 615.549 191.561H599.325C597.487 191.561 596 190.074 596 188.236V165.78C596 163.942 597.487 162.455 599.325 162.455H615.532C616.618 158.696 618.122 155.07 620.027 151.628L608.548 140.15C607.93 139.531 607.579 138.679 607.579 137.794C607.579 136.908 607.93 136.073 608.548 135.438L624.454 119.565C625.758 118.261 627.863 118.261 629.15 119.565L640.628 131.043C644.07 129.139 647.696 127.635 651.455 126.532V110.325C651.455 108.487 652.942 107 654.78 107H677.236C679.074 107 680.561 108.487 680.561 110.325V126.532C684.321 127.618 687.947 129.122 691.388 131.043L702.867 119.565C704.17 118.261 706.276 118.261 707.562 119.565L723.452 135.438C724.07 136.056 724.421 136.908 724.421 137.794C724.421 138.679 724.07 139.515 723.452 140.15L711.973 151.628C713.878 155.07 715.382 158.696 716.468 162.455H732.675C734.513 162.455 736 163.942 736 165.78V188.236C736 190.074 734.513 191.561 732.675 191.561H716.468C715.382 195.321 713.878 198.947 711.973 202.388L723.452 213.867C724.755 215.17 724.755 217.276 723.452 218.562L707.562 234.435C706.259 235.739 704.154 235.739 702.867 234.435L691.388 222.957C687.947 224.861 684.321 226.365 680.561 227.451V243.658C680.561 245.496 679.074 246.983 677.236 246.983V247ZM658.105 240.35H673.911V224.895C673.911 223.358 674.981 222.004 676.485 221.653C681.313 220.517 685.925 218.596 690.169 215.956C691.489 215.137 693.193 215.338 694.279 216.424L705.223 227.368L716.401 216.19L705.457 205.246C704.371 204.16 704.17 202.455 704.989 201.135C707.629 196.891 709.551 192.28 710.687 187.451C711.038 185.947 712.374 184.878 713.928 184.878H729.383V169.072H713.928C712.391 169.072 711.038 168.003 710.687 166.499C709.551 161.67 707.629 157.058 704.989 152.815C704.17 151.495 704.371 149.79 705.457 148.704L716.401 137.76L705.223 126.582L694.279 137.526C693.193 138.612 691.489 138.813 690.169 137.994C685.925 135.354 681.313 133.433 676.485 132.297C674.981 131.946 673.911 130.609 673.911 129.055V113.65H658.105V129.105C658.105 130.659 657.036 131.996 655.532 132.347C650.703 133.483 646.109 135.388 641.848 138.044C640.528 138.863 638.84 138.679 637.738 137.576L626.794 126.632L615.616 137.81L626.56 148.754C627.646 149.84 627.846 151.545 627.028 152.865C624.388 157.109 622.466 161.72 621.33 166.549C620.979 168.053 619.642 169.122 618.089 169.122H602.65V184.928H618.105C619.642 184.928 620.996 185.997 621.347 187.501C622.483 192.33 624.388 196.942 627.044 201.185C627.863 202.505 627.662 204.193 626.576 205.296L615.632 216.24L626.81 227.418L637.754 216.474C638.84 215.371 640.545 215.187 641.865 216.006C646.109 218.646 650.72 220.567 655.549 221.703C657.053 222.054 658.122 223.391 658.122 224.945V240.4L658.105 240.35ZM666.008 199.615C653.544 199.615 643.385 189.473 643.385 176.992C643.385 164.51 653.527 154.368 666.008 154.368C678.49 154.368 688.632 164.51 688.632 176.992C688.632 189.473 678.49 199.615 666.008 199.615ZM666.008 161.018C657.203 161.018 650.035 168.186 650.035 176.992C650.035 185.797 657.203 192.965 666.008 192.965C674.814 192.965 681.982 185.797 681.982 176.992C681.982 168.186 674.814 161.018 666.008 161.018Z" fill="url(#paint0_linear_245_42)"/>
<path d="M677.236 247H654.78C652.942 247 651.455 245.513 651.455 243.675V227.468C647.696 226.382 644.07 224.878 640.628 222.973L629.15 234.452C627.846 235.755 625.741 235.755 624.454 234.452L608.565 218.579C607.947 217.961 607.596 217.109 607.596 216.223C607.596 215.338 607.947 214.502 608.565 213.867L620.043 202.388C618.139 198.947 616.635 195.321 615.549 191.561H599.325C597.487 191.561 596 190.074 596 188.236V165.78C596 163.942 597.487 162.455 599.325 162.455H615.532C616.618 158.696 618.122 155.07 620.027 151.628L608.548 140.15C607.93 139.531 607.579 138.679 607.579 137.794C607.579 136.908 607.93 136.073 608.548 135.438L624.454 119.565C625.758 118.261 627.863 118.261 629.15 119.565L640.628 131.043C644.07 129.139 647.696 127.635 651.455 126.532V110.325C651.455 108.487 652.942 107 654.78 107H677.236C679.074 107 680.561 108.487 680.561 110.325V126.532C684.321 127.618 687.947 129.122 691.388 131.043L702.867 119.565C704.17 118.261 706.276 118.261 707.562 119.565L723.452 135.438C724.07 136.056 724.421 136.908 724.421 137.794C724.421 138.679 724.07 139.515 723.452 140.15L711.973 151.628C713.878 155.07 715.382 158.696 716.468 162.455H732.675C734.513 162.455 736 163.942 736 165.78V188.236C736 190.074 734.513 191.561 732.675 191.561H716.468C715.382 195.321 713.878 198.947 711.973 202.388L723.452 213.867C724.755 215.17 724.755 217.276 723.452 218.562L707.562 234.435C706.259 235.739 704.154 235.739 702.867 234.435L691.388 222.957C687.947 224.861 684.321 226.365 680.561 227.451V243.658C680.561 245.496 679.074 246.983 677.236 246.983V247ZM658.105 240.35H673.911V224.895C673.911 223.358 674.981 222.004 676.485 221.653C681.313 220.517 685.925 218.596 690.169 215.956C691.489 215.137 693.193 215.338 694.279 216.424L705.223 227.368L716.401 216.19L705.457 205.246C704.371 204.16 704.17 202.455 704.989 201.135C707.629 196.891 709.551 192.28 710.687 187.451C711.038 185.947 712.374 184.878 713.928 184.878H729.383V169.072H713.928C712.391 169.072 711.038 168.003 710.687 166.499C709.551 161.67 707.629 157.058 704.989 152.815C704.17 151.495 704.371 149.79 705.457 148.704L716.401 137.76L705.223 126.582L694.279 137.526C693.193 138.612 691.489 138.813 690.169 137.994C685.925 135.354 681.313 133.433 676.485 132.297C674.981 131.946 673.911 130.609 673.911 129.055V113.65H658.105V129.105C658.105 130.659 657.036 131.996 655.532 132.347C650.703 133.483 646.109 135.388 641.848 138.044C640.528 138.863 638.84 138.679 637.738 137.576L626.794 126.632L615.616 137.81L626.56 148.754C627.646 149.84 627.846 151.545 627.028 152.865C624.388 157.109 622.466 161.72 621.33 166.549C620.979 168.053 619.642 169.122 618.089 169.122H602.65V184.928H618.105C619.642 184.928 620.996 185.997 621.347 187.501C622.483 192.33 624.388 196.942 627.044 201.185C627.863 202.505 627.662 204.193 626.576 205.296L615.632 216.24L626.81 227.418L637.754 216.474C638.84 215.371 640.545 215.187 641.865 216.006C646.109 218.646 650.72 220.567 655.549 221.703C657.053 222.054 658.122 223.391 658.122 224.945V240.4L658.105 240.35ZM666.008 199.615C653.544 199.615 643.385 189.473 643.385 176.992C643.385 164.51 653.527 154.368 666.008 154.368C678.49 154.368 688.632 164.51 688.632 176.992C688.632 189.473 678.49 199.615 666.008 199.615ZM666.008 161.018C657.203 161.018 650.035 168.186 650.035 176.992C650.035 185.797 657.203 192.965 666.008 192.965C674.814 192.965 681.982 185.797 681.982 176.992C681.982 168.186 674.814 161.018 666.008 161.018Z" fill="url(#paint1_linear_245_42)"/>
<path d="M666.003 421C664.093 421 662.281 420.168 661.034 418.718L633.593 386.865C631.227 384.12 631.533 379.97 634.274 377.595C637.015 375.226 641.164 375.532 643.531 378.283L666.003 404.369L688.47 378.283C690.836 375.532 694.985 375.226 697.721 377.601C700.468 379.97 700.773 384.12 698.401 386.865L670.96 418.718C669.714 420.168 667.902 421 665.991 421H666.003Z" fill="#5DBEA9"/>
<path d="M313.641 188.497C313.691 186.977 313.756 185.456 313.756 183.921C313.756 104.946 249.785 40.926 170.876 40.926C91.9664 40.926 28 104.946 28 183.921C28 262.896 92.0016 326.916 170.876 326.916C171.177 326.916 171.479 326.896 171.781 326.891C216.217 326.614 257.284 305.85 284.006 271.207C284.062 271.131 284.122 271.061 284.177 270.985C285.022 269.888 285.847 268.771 286.662 267.648C286.818 267.432 286.969 267.21 287.125 266.994C288.634 264.885 290.082 262.73 291.48 260.54C291.576 260.394 291.671 260.248 291.767 260.102C297.782 250.563 305.352 242.298 314.043 235.658C329.72 223.597 439.577 216.731 459.947 216.731C475.775 216.731 490.964 220.864 504.308 228.364C508.12 230.514 511.782 232.93 515.277 235.603C509.84 220.547 506.812 204.65 506.345 188.492H313.641V188.497Z" fill="#8DB833"/>
<path d="M254.452 268.665C301.296 221.782 301.296 145.771 254.452 98.8881C207.609 52.0057 131.661 52.0057 84.8174 98.8882C37.974 145.771 37.974 221.782 84.8174 268.665C131.661 315.547 207.609 315.547 254.452 268.665Z" fill="#F2F2F2"/>
<path d="M213.135 184.051C213.135 160.816 193.785 141.917 170.005 141.917C146.225 141.917 126.865 160.826 126.865 184.051C126.865 207.276 146.215 226.175 169.995 226.175C193.775 226.175 213.125 207.276 213.125 184.051H213.135ZM134.554 184.051C134.554 164.963 150.462 149.427 170.005 149.427C189.548 149.427 205.456 164.963 205.456 184.051C205.456 203.138 189.548 218.665 170.005 218.665C150.462 218.665 134.554 203.138 134.554 184.051Z" fill="url(#paint2_linear_245_42)"/>
<path d="M162.683 128.808C161.583 130.27 161.532 132.269 162.866 133.592C163.62 134.338 164.618 134.716 165.606 134.716C166.593 134.716 167.551 134.348 168.304 133.632L175.148 127.037C175.871 126.341 176.278 125.386 176.289 124.381C176.299 123.387 175.902 122.432 175.179 121.716L168.427 115.041C166.929 113.569 164.495 113.549 162.988 115.012C161.481 116.474 161.461 118.851 162.958 120.333L163.518 120.89C130.715 124.073 105 151.177 105 184.051C105 186.13 106.721 187.811 108.839 187.811C110.958 187.811 112.679 186.13 112.679 184.051C112.679 155.634 134.554 132.358 162.683 128.798V128.808Z" fill="url(#paint3_linear_245_42)"/>
<path d="M235 184.051C235 181.972 233.279 180.291 231.161 180.291C229.042 180.291 227.321 181.972 227.321 184.051C227.321 211.733 206.596 234.62 179.537 239.086C180.668 237.574 180.627 235.495 179.191 234.182C177.643 232.76 175.199 232.849 173.753 234.361L167.194 241.214C167.194 241.214 167.184 241.284 167.153 241.304C166.553 241.97 166.155 242.816 166.155 243.771C166.155 243.8 166.176 243.82 166.176 243.85C166.176 243.9 166.206 243.94 166.206 243.989C166.267 244.964 166.675 245.83 167.357 246.466C167.367 246.476 167.357 246.496 167.378 246.506L174.394 252.912C175.138 253.588 176.075 253.926 177.022 253.926C178.05 253.926 179.069 253.518 179.823 252.733C181.279 251.221 181.197 248.843 179.649 247.431L178.998 246.844C210.578 242.547 235 216.059 235 184.041V184.051Z" fill="url(#paint4_linear_245_42)"/>
<path d="M200.873 187.811C202.991 187.811 204.713 186.13 204.713 184.051C204.713 181.972 202.991 180.291 200.873 180.291H173.845V160.099C173.845 158.021 172.123 156.34 170.005 156.34C167.887 156.34 166.166 158.021 166.166 160.099V184.051C166.166 186.13 167.887 187.811 170.005 187.811H200.873Z" fill="url(#paint5_linear_245_42)"/>
<path d="M175.003 420.999C173.092 420.999 171.28 420.167 170.034 418.717L142.593 386.864C140.226 384.119 140.532 379.969 143.274 377.594C146.015 375.225 150.164 375.531 152.53 378.282L175.003 404.368L197.469 378.282C199.835 375.531 203.985 375.225 206.72 377.6C209.467 379.969 209.773 384.119 207.401 386.864L179.96 418.717C178.713 420.167 176.901 420.999 174.991 420.999H175.003Z" fill="#8DB833"/>
<path d="M1165.33 27C1164.4 27 1163.48 27 1162.56 27.0351C1162.02 27.0351 1161.48 27.0552 1160.94 27.0702C1160.26 27.0853 1159.58 27.1354 1158.9 27.1655C1135.9 28.1939 1115.13 34.2685 1095.16 45.3342C1093.97 46.0214 1092.79 46.6936 1091.61 47.4009C1091.5 47.4962 1091.37 47.5664 1091.24 47.6266C1073.62 58.607 1058.4 72.5571 1046.15 91.0367C1045.59 91.8895 1045 92.7222 1044.45 93.5849C1044.17 94.0113 1043.91 94.4427 1043.61 94.8691C1037.73 103.853 1030.44 111.643 1022.12 117.999C1006.44 129.962 936.862 136.804 916.492 136.804C900.774 136.804 845.383 132.776 832.06 125.438C828.212 123.311 824.511 120.908 821 118.245C826.286 132.892 829.369 148.587 829.857 164.93H1022.65C1022.6 166.45 1022.53 167.97 1022.53 169.505C1022.53 248.204 1086.5 312 1165.41 312C1244.32 312 1308.28 248.204 1308.28 169.505C1308.28 90.806 1244.05 27 1165.33 27Z" fill="#4CB6CF"/>
<path d="M1246.45 254.665C1293.3 207.782 1293.3 131.771 1246.45 84.8881C1199.61 38.0057 1123.66 38.0057 1076.82 84.8882C1029.97 131.771 1029.97 207.782 1076.82 254.665C1123.66 301.547 1199.61 301.547 1246.45 254.665Z" fill="#F2F2F2"/>
<path d="M1210.91 135.772C1211.68 135.772 1212.43 135.477 1212.98 134.923L1244.14 104.254C1244.91 103.5 1245.19 102.392 1244.87 101.367C1244.55 100.342 1243.69 99.5878 1242.62 99.3875L1232.32 97.4905L1230.39 87.3459C1230.19 86.2972 1229.42 85.4371 1228.38 85.1308C1227.34 84.8126 1226.21 85.0836 1225.44 85.8495L1194.28 116.519C1193.6 117.191 1193.3 118.145 1193.48 119.088L1193.66 120.042C1193.48 119.83 1193.3 119.618 1193.06 119.465C1183.83 113.585 1173.12 110.475 1162.08 110.475C1130.59 110.475 1105 135.666 1105 166.642C1105 182.23 1111.49 196.345 1121.94 206.525L1109.96 220.24C1108.9 221.442 1109.05 223.268 1110.27 224.305C1110.82 224.776 1111.5 225 1112.17 225C1113 225 1113.81 224.658 1114.39 223.999L1126.3 210.354C1136.09 218.131 1148.52 222.808 1162.04 222.808C1175.57 222.808 1188 218.131 1197.79 210.354L1209.7 223.999C1210.28 224.658 1211.1 225 1211.92 225C1212.59 225 1213.27 224.776 1213.82 224.305C1215.04 223.268 1215.19 221.453 1214.13 220.24L1202.15 206.525C1212.6 196.345 1219.09 182.23 1219.09 166.642C1219.09 155.578 1215.82 144.868 1209.63 135.677C1209.61 135.642 1209.57 135.63 1209.55 135.595L1210.34 135.736C1210.52 135.772 1210.7 135.783 1210.88 135.783L1210.91 135.772ZM1225.65 93.7908L1226.64 99.0105L1200.5 124.743L1199.5 119.524L1225.65 93.7908ZM1204.79 138.847C1210.34 147.095 1213.27 156.697 1213.27 166.642C1213.27 194.436 1190.3 217.047 1162.06 217.047C1133.82 217.047 1110.85 194.425 1110.85 166.642C1110.85 138.859 1133.83 116.236 1162.07 116.236C1171.98 116.236 1181.59 119.029 1189.87 124.307C1191.22 125.167 1193.04 124.79 1193.91 123.459C1194.04 123.259 1194.09 123.035 1194.18 122.811L1195.48 129.68L1185.4 139.601C1185.23 139.059 1184.95 138.552 1184.45 138.175C1177.99 133.25 1170.24 130.646 1162.06 130.646C1141.88 130.646 1125.47 146.8 1125.47 166.653C1125.47 186.507 1141.88 202.661 1162.06 202.661C1182.23 202.661 1198.64 186.507 1198.64 166.653C1198.64 158.323 1195.68 150.205 1190.31 143.784C1190.18 143.619 1189.99 143.524 1189.83 143.395L1199.61 133.769L1205.62 134.876C1204.28 135.748 1203.91 137.539 1204.79 138.87V138.847ZM1185.8 147.424C1190.31 152.821 1192.79 159.643 1192.79 166.642C1192.79 183.326 1179 196.887 1162.06 196.887C1145.12 196.887 1131.33 183.314 1131.33 166.642C1131.33 149.969 1145.12 136.396 1162.06 136.396C1168.94 136.396 1175.44 138.588 1180.86 142.723C1181.14 142.935 1181.45 143.065 1181.77 143.159L1169.43 155.307C1169.21 154.447 1168.66 153.693 1167.78 153.316C1165.97 152.562 1164.04 152.173 1162.06 152.173C1153.96 152.173 1147.37 158.653 1147.37 166.63C1147.37 174.607 1153.95 181.087 1162.06 181.087C1170.16 181.087 1176.74 174.607 1176.74 166.63C1176.74 164.438 1176.25 162.329 1175.3 160.362C1175 159.749 1174.48 159.325 1173.9 159.054L1185.77 147.366C1185.77 147.366 1185.78 147.401 1185.8 147.413V147.424ZM1170.89 166.642C1170.89 171.437 1166.93 175.337 1162.06 175.337C1157.18 175.337 1153.22 171.437 1153.22 166.642C1153.22 161.846 1157.18 157.946 1162.06 157.946C1163.25 157.946 1164.4 158.17 1165.49 158.63C1165.65 158.688 1165.8 158.688 1165.96 158.724L1159.98 164.603C1158.85 165.734 1158.85 167.549 1159.98 168.68C1160.56 169.246 1161.3 169.528 1162.06 169.528C1162.81 169.528 1163.55 169.246 1164.13 168.68L1170.03 162.871C1170.6 164.049 1170.9 165.322 1170.9 166.642H1170.89ZM1204.63 128.82L1230.77 103.087L1236.08 104.065L1209.93 129.798L1204.63 128.82Z" fill="url(#paint6_linear_245_42)"/>
<path d="M1175 421C1173.09 421 1171.28 420.168 1170.03 418.718L1142.59 386.865C1140.23 384.12 1140.53 379.97 1143.27 377.595C1146.02 375.226 1150.16 375.532 1152.53 378.283L1175 404.369L1197.47 378.283C1199.84 375.532 1203.99 375.226 1206.72 377.601C1209.47 379.97 1209.77 384.12 1207.4 386.865L1179.96 418.718C1178.71 420.168 1176.9 421 1174.99 421H1175Z" fill="#4CB6CF"/>
<defs>
<linearGradient id="paint0_linear_245_42" x1="666" y1="107" x2="666" y2="247" gradientUnits="userSpaceOnUse">
<stop stop-color="#5DBEA9"/>
<stop offset="1" stop-color="#56BAFB"/>
</linearGradient>
<linearGradient id="paint1_linear_245_42" x1="666" y1="107" x2="666" y2="247" gradientUnits="userSpaceOnUse">
<stop stop-color="#5DBEAE"/>
<stop offset="1" stop-color="#5ABCE9"/>
</linearGradient>
<linearGradient id="paint2_linear_245_42" x1="170" y1="141.917" x2="170" y2="226.175" gradientUnits="userSpaceOnUse">
<stop stop-color="#5DBEA9"/>
<stop offset="1" stop-color="#57BBF8"/>
</linearGradient>
<linearGradient id="paint3_linear_245_42" x1="140.644" y1="113.926" x2="140.644" y2="187.811" gradientUnits="userSpaceOnUse">
<stop stop-color="#5DBEA9"/>
<stop offset="1" stop-color="#57BBF8"/>
</linearGradient>
<linearGradient id="paint4_linear_245_42" x1="200.578" y1="180.291" x2="200.578" y2="253.926" gradientUnits="userSpaceOnUse">
<stop stop-color="#5DBEA9"/>
<stop offset="1" stop-color="#57BBF8"/>
</linearGradient>
<linearGradient id="paint5_linear_245_42" x1="185.439" y1="156.34" x2="185.439" y2="187.811" gradientUnits="userSpaceOnUse">
<stop stop-color="#5DBEA9"/>
<stop offset="1" stop-color="#57BBF8"/>
</linearGradient>
<linearGradient id="paint6_linear_245_42" x1="1175" y1="85" x2="1175" y2="225" gradientUnits="userSpaceOnUse">
<stop stop-color="#5DBEAE"/>
<stop offset="1" stop-color="#5ABCE9"/>
</linearGradient>
</defs>
</svg>
