<?xml version="1.0" encoding="UTF-8"?> <svg xmlns="http://www.w3.org/2000/svg" width="265" height="199" viewBox="0 0 265 199" fill="none"> <path fill-rule="evenodd" clip-rule="evenodd" d="M162.176 130.186C159.957 130.414 157.704 130.531 155.424 130.531C153.145 130.531 150.892 130.414 148.672 130.186C146.453 130.414 144.2 130.531 141.92 130.531C139.641 130.531 137.389 130.414 135.17 130.186C132.95 130.414 130.698 130.531 128.419 130.531C126.139 130.531 123.887 130.414 121.667 130.186C119.448 130.414 117.195 130.531 114.915 130.531C112.636 130.531 110.383 130.414 108.164 130.186C105.944 130.414 103.692 130.531 101.412 130.531C65.3668 130.531 36.1465 101.311 36.1465 65.2655C36.1465 29.2203 65.3668 0 101.412 0C103.692 0 105.944 0.116889 108.164 0.344999C110.383 0.116889 112.636 0 114.915 0C117.195 0 119.448 0.116889 121.667 0.345C123.887 0.116889 126.139 0 128.419 0C130.698 0 132.95 0.116856 135.17 0.344903C137.389 0.116856 139.641 0 141.92 0C144.2 0 146.453 0.1169 148.672 0.345032C150.892 0.1169 153.145 0 155.424 0C157.704 0 159.957 0.116889 162.176 0.344999C164.396 0.116889 166.648 0 168.928 0C204.973 0 234.193 29.2203 234.193 65.2655C234.193 101.311 204.973 130.531 168.928 130.531C166.648 130.531 164.396 130.414 162.176 130.186ZM101.652 129.232C101.572 129.232 101.492 129.232 101.412 129.232C66.0841 129.232 37.4451 100.593 37.4451 65.2655C37.4451 29.9376 66.0841 1.29867 101.412 1.29867C101.571 1.29867 101.729 1.29925 101.888 1.3004C72.0847 7.3377 49.6499 33.6816 49.6499 65.2655C49.6499 96.8493 72.0847 123.193 101.888 129.231L101.781 129.231L101.652 129.232ZM108.164 128.88C76.0096 125.507 50.9486 98.3129 50.9486 65.2655C50.9486 32.218 76.0096 5.02382 108.164 1.65075C109.384 1.77876 110.594 1.94107 111.793 2.1367C83.8006 9.48904 63.1534 34.966 63.1534 65.2655C63.1534 95.5649 83.8006 121.042 111.793 128.394C110.594 128.59 109.384 128.752 108.164 128.88ZM64.452 65.2655C64.452 34.5703 86.0724 8.92474 114.915 2.7266C116.497 3.06646 118.057 3.46478 119.592 3.91921C96.115 12.4663 78.9281 34.1066 76.8636 60.0084C74.9145 61.4543 73.0727 62.9725 71.3472 64.5569C71.0268 64.8511 70.7104 65.1475 70.3981 65.4462C70.7104 65.7449 71.0268 66.0414 71.3472 66.3356C73.0821 67.9285 74.9346 69.4547 76.8954 70.9077C79.0987 96.6387 96.2315 118.107 119.592 126.612C118.057 127.066 116.497 127.464 114.915 127.804C86.0724 121.606 64.452 95.9607 64.452 65.2655ZM78.2955 71.9197C80.9116 97.2301 98.2858 118.161 121.666 125.959C123.435 125.369 125.17 124.704 126.866 123.967C109.267 115.39 96.1007 99.1315 91.7281 79.555C86.8662 77.351 82.3635 74.7882 78.2955 71.9197ZM93.2134 80.2123C97.4509 82.0425 101.948 83.604 106.656 84.8632C111.31 99.6657 121.096 112.194 133.929 120.363C132.146 121.417 130.307 122.388 128.418 123.269C110.963 115.128 97.7921 99.3395 93.2134 80.2123ZM108.145 85.2494C116.332 87.309 125.133 88.4606 134.301 88.5319C134.415 92.483 134.416 97.1174 134.416 102.561H135.714C135.714 97.1183 135.715 92.4844 135.829 88.5338C145.069 88.4847 153.939 87.3384 162.188 85.2708C157.462 99.6386 147.782 111.758 135.17 119.609C122.551 111.754 112.869 99.6266 108.145 85.2494ZM163.677 84.8859C159.02 99.6785 149.237 112.198 136.411 120.363C138.194 121.417 140.033 122.388 141.922 123.269C159.365 115.133 172.531 99.3602 177.117 80.2497C172.88 82.0748 168.384 83.6313 163.677 84.8859ZM178.603 79.5942C186.469 76.0383 193.398 71.5439 199.071 66.3356C199.391 66.0414 199.707 65.7449 200.02 65.4462C199.707 65.1475 199.391 64.8511 199.071 64.5569C184.752 51.4103 162.43 42.8125 137.232 42.3746C136.773 42.3325 136.311 42.3037 135.844 42.2888C135.715 38.2268 135.714 33.426 135.714 27.7432H134.416C134.416 33.4268 134.415 38.2282 134.286 42.2906C133.818 42.3066 133.353 42.3366 132.892 42.38C111.562 42.8048 92.3104 49.0769 78.2565 59.0002C80.7339 33.5155 98.1661 12.4103 121.666 4.57166C123.435 5.16169 125.17 5.82688 126.866 6.56346C109.147 15.1997 95.9211 31.6218 91.6397 51.3775C92.129 51.155 92.6219 50.9362 93.1184 50.7211C97.6078 31.413 110.841 15.4603 128.418 7.2623C130.307 8.14322 132.146 9.11368 133.929 10.1682C120.982 18.4091 111.137 31.0874 106.534 46.0614C107.026 45.9291 107.52 45.8002 108.017 45.6745C112.693 31.1254 122.437 18.8481 135.17 10.9215C147.896 18.8439 157.637 31.1124 162.316 45.6514C162.812 45.7765 163.307 45.905 163.799 46.0368C159.192 31.0736 149.35 18.4046 136.411 10.1682C138.194 9.11367 140.033 8.14321 141.922 7.2623C159.487 15.4545 172.714 31.3907 177.212 50.6806C177.709 50.8951 178.202 51.1133 178.691 51.3351C174.4 31.5984 161.18 15.1935 143.474 6.56346C145.17 5.82693 146.905 5.16177 148.673 4.57176C172.154 12.404 189.576 33.4806 192.077 58.9368C192.547 59.268 193.012 59.6032 193.47 59.9425C191.382 34.07 174.204 12.4592 150.747 3.91931C152.283 3.46487 153.843 3.06653 155.424 2.72666C184.267 8.92492 205.887 34.5704 205.887 65.2655C205.887 95.9606 184.267 121.606 155.424 127.804C153.843 127.464 152.283 127.066 150.747 126.612C174.089 118.114 191.213 96.6736 193.438 70.9706C192.977 71.3112 192.51 71.6477 192.037 71.9801C189.4 97.2633 172.035 118.167 148.673 125.959C146.905 125.369 145.17 124.704 143.474 123.967C161.061 115.396 174.222 99.1532 178.603 79.5942ZM135.17 121.134C133.485 122.154 131.75 123.1 129.97 123.967C131.667 124.704 133.401 125.369 135.17 125.959C136.939 125.369 138.673 124.704 140.369 123.967C138.589 123.1 136.855 122.154 135.17 121.134ZM141.922 124.699C140.393 125.395 138.833 126.033 137.244 126.612C138.78 127.066 140.34 127.465 141.922 127.804C143.504 127.465 145.064 127.066 146.6 126.612C145.011 126.033 143.45 125.395 141.922 124.699ZM148.673 127.327C147.479 127.717 146.269 128.073 145.044 128.394C146.243 128.59 147.453 128.752 148.672 128.88C149.893 128.752 151.103 128.59 152.301 128.394C151.078 128.073 149.868 127.717 148.673 127.327ZM155.424 129.132C155.266 129.166 155.107 129.198 154.948 129.231C155.107 129.232 155.266 129.232 155.424 129.232C155.583 129.232 155.742 129.232 155.9 129.231C155.741 129.198 155.583 129.166 155.424 129.132ZM162.176 128.88C160.956 128.752 159.746 128.59 158.547 128.394C186.539 121.042 207.186 95.5648 207.186 65.2655C207.186 34.9661 186.539 9.48918 158.547 2.13676C159.746 1.9411 160.956 1.77877 162.176 1.65075C194.33 5.02382 219.391 32.218 219.391 65.2655C219.391 98.3129 194.33 125.507 162.176 128.88ZM168.452 1.3004C168.611 1.29925 168.769 1.29867 168.928 1.29867C204.256 1.29867 232.895 29.9376 232.895 65.2655C232.895 100.593 204.256 129.232 168.928 129.232L168.823 129.232C168.699 129.232 168.576 129.231 168.452 129.231C198.255 123.193 220.69 96.8493 220.69 65.2655C220.69 33.6816 198.255 7.33771 168.452 1.3004ZM155.9 1.3004C155.742 1.29925 155.583 1.29867 155.424 1.29867C155.266 1.29867 155.107 1.29925 154.948 1.30041C155.107 1.33259 155.266 1.36535 155.424 1.39869C155.583 1.36535 155.741 1.33259 155.9 1.3004ZM152.301 2.13676C151.103 1.94112 149.893 1.7788 148.672 1.65079C147.453 1.77876 146.243 1.94101 145.045 2.13657C146.269 2.45807 147.479 2.81421 148.673 3.20391C149.868 2.81429 151.078 2.4582 152.301 2.13676ZM146.6 3.91931C145.064 3.46478 143.504 3.06637 141.922 2.72646C140.34 3.06638 138.78 3.46479 137.244 3.91931C138.833 4.49783 140.393 5.13634 141.922 5.83208C143.45 5.13633 145.011 4.49783 146.6 3.91931ZM140.369 6.56346C138.673 5.82693 136.939 5.16177 135.17 4.57176C133.401 5.16177 131.667 5.82693 129.97 6.56346C131.75 7.43104 133.485 8.3772 135.17 9.39742C136.855 8.3772 138.589 7.43104 140.369 6.56346ZM123.74 126.612C125.329 126.033 126.889 125.395 128.418 124.699C129.947 125.395 131.507 126.033 133.096 126.612C131.56 127.066 130 127.465 128.418 127.805C126.836 127.465 125.276 127.066 123.74 126.612ZM131.541 128.394C132.765 128.073 133.975 127.717 135.17 127.327C136.365 127.717 137.575 128.073 138.799 128.394C137.6 128.59 136.39 128.752 135.17 128.88C133.949 128.752 132.74 128.59 131.541 128.394ZM141.446 129.231C141.605 129.198 141.763 129.166 141.922 129.132L142.066 129.163C142.176 129.186 142.286 129.208 142.397 129.231C142.238 129.232 142.079 129.232 141.92 129.232C141.762 129.232 141.604 129.232 141.446 129.231ZM141.92 1.29867C142.079 1.29867 142.238 1.29925 142.397 1.3004C142.238 1.33253 142.08 1.36522 141.922 1.39849C141.763 1.36522 141.605 1.33252 141.446 1.30039C141.604 1.29924 141.762 1.29867 141.92 1.29867ZM135.17 1.65066C136.39 1.77865 137.6 1.94095 138.799 2.13657C137.575 2.45807 136.365 2.81421 135.17 3.20391C133.975 2.81419 132.765 2.45802 131.541 2.13651C132.74 1.94091 133.949 1.77863 135.17 1.65066ZM128.418 2.72639C130 3.06632 131.56 3.46475 133.096 3.91931C131.507 4.49783 129.947 5.13633 128.418 5.83208C126.889 5.13629 125.329 4.49776 123.74 3.91921C125.276 3.46469 126.836 3.0663 128.418 2.72639ZM121.666 127.327C120.472 127.717 119.262 128.073 118.038 128.394C119.237 128.59 120.447 128.752 121.667 128.88C122.887 128.752 124.097 128.59 125.295 128.394C124.071 128.073 122.861 127.717 121.666 127.327ZM128.418 129.133C128.26 129.166 128.102 129.198 127.943 129.231C128.102 129.232 128.26 129.232 128.419 129.232C128.577 129.232 128.735 129.232 128.893 129.231C128.734 129.198 128.576 129.166 128.418 129.133ZM128.893 1.30039C128.735 1.29924 128.577 1.29867 128.419 1.29867C128.26 1.29867 128.102 1.29925 127.943 1.3004C128.102 1.3325 128.26 1.36518 128.418 1.39843C128.576 1.36517 128.734 1.33249 128.893 1.30039ZM125.295 2.13651C124.097 1.94096 122.887 1.77872 121.667 1.65075C120.447 1.77876 119.237 1.94107 118.038 2.1367C119.262 2.45813 120.472 2.8142 121.666 3.2038C122.861 2.81413 124.071 2.45799 125.295 2.13651ZM114.44 129.231C114.598 129.198 114.757 129.166 114.915 129.132C115.074 129.166 115.232 129.198 115.391 129.231L115.303 129.231L115.147 129.232C115.07 129.232 114.993 129.232 114.915 129.232C114.757 129.232 114.598 129.232 114.44 129.231ZM114.915 1.29867C115.074 1.29867 115.233 1.29925 115.391 1.3004C115.232 1.33257 115.074 1.36531 114.915 1.39862C114.757 1.36531 114.598 1.33257 114.44 1.3004C114.598 1.29925 114.757 1.29867 114.915 1.29867ZM156.771 65.973C156.346 77.2384 147.234 86.3035 135.892 86.7124C135.978 84.6074 136.105 82.7127 136.295 81.0059C136.875 75.7849 138.023 72.4647 140.2 70.2876C142.378 68.1104 145.698 66.9623 150.919 66.3821C152.665 66.1881 154.607 66.059 156.771 65.973ZM172.474 65.8016C166.858 65.8016 162.103 65.802 158.072 65.9271C157.737 75.9139 150.968 84.2791 141.756 87.0498C164.768 85.7298 184.932 77.516 198.119 65.4462C185.326 53.7373 165.968 45.6573 143.812 43.9795C151.96 47.3045 157.764 55.1487 158.072 64.3774C162.104 64.5026 166.858 64.5029 172.474 64.5029V65.8016ZM150.919 63.9224C152.665 64.1164 154.608 64.2456 156.771 64.3316C156.364 53.488 147.907 44.6826 137.159 43.6722C136.739 43.6651 136.317 43.6602 135.894 43.6577C135.98 45.7365 136.107 47.6096 136.295 49.2986C136.875 54.5196 138.023 57.8398 140.2 60.017C142.378 62.1941 145.698 63.3423 150.919 63.9224ZM133.835 81.0059C134.025 82.7122 134.153 84.6062 134.238 86.7104C122.921 86.2755 113.837 77.2221 113.412 65.9751C115.554 66.0611 117.48 66.1897 119.211 66.3821C124.433 66.9623 127.753 68.1104 129.93 70.2876C132.107 72.4647 133.255 75.7849 133.835 81.0059ZM97.6561 64.5029C103.297 64.5029 108.068 64.5026 112.111 64.3758C112.419 55.1683 118.197 47.3392 126.316 44.0017C104.281 45.7277 85.036 53.7883 72.2989 65.4462C85.4303 77.465 105.479 85.6604 128.37 87.0327C119.188 84.2449 112.446 75.8944 112.111 65.9287C108.068 65.802 103.297 65.8016 97.6561 65.8016V64.5029ZM119.211 63.9224C117.48 64.1148 115.554 64.2435 113.412 64.3295C113.82 53.5055 122.248 44.7129 132.968 43.6775C133.39 43.6693 133.812 43.6634 134.236 43.6598C134.15 45.7378 134.023 47.6101 133.835 49.2986C133.255 54.5196 132.107 57.8398 129.93 60.017C127.753 62.1941 124.433 63.3423 119.211 63.9224Z" fill="#B84040"></path> <path fill-rule="evenodd" clip-rule="evenodd" d="M162.176 130.186C159.957 130.414 157.704 130.531 155.424 130.531C153.145 130.531 150.892 130.414 148.672 130.186C146.453 130.414 144.2 130.531 141.92 130.531C139.641 130.531 137.389 130.414 135.17 130.186C132.95 130.414 130.698 130.531 128.419 130.531C126.139 130.531 123.887 130.414 121.667 130.186C119.448 130.414 117.195 130.531 114.915 130.531C112.636 130.531 110.383 130.414 108.164 130.186C105.944 130.414 103.692 130.531 101.412 130.531C65.3668 130.531 36.1465 101.311 36.1465 65.2655C36.1465 29.2203 65.3668 0 101.412 0C103.692 0 105.944 0.116889 108.164 0.344999C110.383 0.116889 112.636 0 114.915 0C117.195 0 119.448 0.116889 121.667 0.345C123.887 0.116889 126.139 0 128.419 0C130.698 0 132.95 0.116856 135.17 0.344903C137.389 0.116856 139.641 0 141.92 0C144.2 0 146.453 0.1169 148.672 0.345032C150.892 0.1169 153.145 0 155.424 0C157.704 0 159.957 0.116889 162.176 0.344999C164.396 0.116889 166.648 0 168.928 0C204.973 0 234.193 29.2203 234.193 65.2655C234.193 101.311 204.973 130.531 168.928 130.531C166.648 130.531 164.396 130.414 162.176 130.186ZM101.652 129.232C101.572 129.232 101.492 129.232 101.412 129.232C66.0841 129.232 37.4451 100.593 37.4451 65.2655C37.4451 29.9376 66.0841 1.29867 101.412 1.29867C101.571 1.29867 101.729 1.29925 101.888 1.3004C72.0847 7.3377 49.6499 33.6816 49.6499 65.2655C49.6499 96.8493 72.0847 123.193 101.888 129.231L101.781 129.231L101.652 129.232ZM108.164 128.88C76.0096 125.507 50.9486 98.3129 50.9486 65.2655C50.9486 32.218 76.0096 5.02382 108.164 1.65075C109.384 1.77876 110.594 1.94107 111.793 2.1367C83.8006 9.48904 63.1534 34.966 63.1534 65.2655C63.1534 95.5649 83.8006 121.042 111.793 128.394C110.594 128.59 109.384 128.752 108.164 128.88ZM64.452 65.2655C64.452 34.5703 86.0724 8.92474 114.915 2.7266C116.497 3.06646 118.057 3.46478 119.592 3.91921C96.115 12.4663 78.9281 34.1066 76.8636 60.0084C74.9145 61.4543 73.0727 62.9725 71.3472 64.5569C71.0268 64.8511 70.7104 65.1475 70.3981 65.4462C70.7104 65.7449 71.0268 66.0414 71.3472 66.3356C73.0821 67.9285 74.9346 69.4547 76.8954 70.9077C79.0987 96.6387 96.2315 118.107 119.592 126.612C118.057 127.066 116.497 127.464 114.915 127.804C86.0724 121.606 64.452 95.9607 64.452 65.2655ZM78.2955 71.9197C80.9116 97.2301 98.2858 118.161 121.666 125.959C123.435 125.369 125.17 124.704 126.866 123.967C109.267 115.39 96.1007 99.1315 91.7281 79.555C86.8662 77.351 82.3635 74.7882 78.2955 71.9197ZM93.2134 80.2123C97.4509 82.0425 101.948 83.604 106.656 84.8632C111.31 99.6657 121.096 112.194 133.929 120.363C132.146 121.417 130.307 122.388 128.418 123.269C110.963 115.128 97.7921 99.3395 93.2134 80.2123ZM108.145 85.2494C116.332 87.309 125.133 88.4606 134.301 88.5319C134.415 92.483 134.416 97.1174 134.416 102.561H135.714C135.714 97.1183 135.715 92.4844 135.829 88.5338C145.069 88.4847 153.939 87.3384 162.188 85.2708C157.462 99.6386 147.782 111.758 135.17 119.609C122.551 111.754 112.869 99.6266 108.145 85.2494ZM163.677 84.8859C159.02 99.6785 149.237 112.198 136.411 120.363C138.194 121.417 140.033 122.388 141.922 123.269C159.365 115.133 172.531 99.3602 177.117 80.2497C172.88 82.0748 168.384 83.6313 163.677 84.8859ZM178.603 79.5942C186.469 76.0383 193.398 71.5439 199.071 66.3356C199.391 66.0414 199.707 65.7449 200.02 65.4462C199.707 65.1475 199.391 64.8511 199.071 64.5569C184.752 51.4103 162.43 42.8125 137.232 42.3746C136.773 42.3325 136.311 42.3037 135.844 42.2888C135.715 38.2268 135.714 33.426 135.714 27.7432H134.416C134.416 33.4268 134.415 38.2282 134.286 42.2906C133.818 42.3066 133.353 42.3366 132.892 42.38C111.562 42.8048 92.3104 49.0769 78.2565 59.0002C80.7339 33.5155 98.1661 12.4103 121.666 4.57166C123.435 5.16169 125.17 5.82688 126.866 6.56346C109.147 15.1997 95.9211 31.6218 91.6397 51.3775C92.129 51.155 92.6219 50.9362 93.1184 50.7211C97.6078 31.413 110.841 15.4603 128.418 7.2623C130.307 8.14322 132.146 9.11368 133.929 10.1682C120.982 18.4091 111.137 31.0874 106.534 46.0614C107.026 45.9291 107.52 45.8002 108.017 45.6745C112.693 31.1254 122.437 18.8481 135.17 10.9215C147.896 18.8439 157.637 31.1124 162.316 45.6514C162.812 45.7765 163.307 45.905 163.799 46.0368C159.192 31.0736 149.35 18.4046 136.411 10.1682C138.194 9.11367 140.033 8.14321 141.922 7.2623C159.487 15.4545 172.714 31.3907 177.212 50.6806C177.709 50.8951 178.202 51.1133 178.691 51.3351C174.4 31.5984 161.18 15.1935 143.474 6.56346C145.17 5.82693 146.905 5.16177 148.673 4.57176C172.154 12.404 189.576 33.4806 192.077 58.9368C192.547 59.268 193.012 59.6032 193.47 59.9425C191.382 34.07 174.204 12.4592 150.747 3.91931C152.283 3.46487 153.843 3.06653 155.424 2.72666C184.267 8.92492 205.887 34.5704 205.887 65.2655C205.887 95.9606 184.267 121.606 155.424 127.804C153.843 127.464 152.283 127.066 150.747 126.612C174.089 118.114 191.213 96.6736 193.438 70.9706C192.977 71.3112 192.51 71.6477 192.037 71.9801C189.4 97.2633 172.035 118.167 148.673 125.959C146.905 125.369 145.17 124.704 143.474 123.967C161.061 115.396 174.222 99.1532 178.603 79.5942ZM135.17 121.134C133.485 122.154 131.75 123.1 129.97 123.967C131.667 124.704 133.401 125.369 135.17 125.959C136.939 125.369 138.673 124.704 140.369 123.967C138.589 123.1 136.855 122.154 135.17 121.134ZM141.922 124.699C140.393 125.395 138.833 126.033 137.244 126.612C138.78 127.066 140.34 127.465 141.922 127.804C143.504 127.465 145.064 127.066 146.6 126.612C145.011 126.033 143.45 125.395 141.922 124.699ZM148.673 127.327C147.479 127.717 146.269 128.073 145.044 128.394C146.243 128.59 147.453 128.752 148.672 128.88C149.893 128.752 151.103 128.59 152.301 128.394C151.078 128.073 149.868 127.717 148.673 127.327ZM155.424 129.132C155.266 129.166 155.107 129.198 154.948 129.231C155.107 129.232 155.266 129.232 155.424 129.232C155.583 129.232 155.742 129.232 155.9 129.231C155.741 129.198 155.583 129.166 155.424 129.132ZM162.176 128.88C160.956 128.752 159.746 128.59 158.547 128.394C186.539 121.042 207.186 95.5648 207.186 65.2655C207.186 34.9661 186.539 9.48918 158.547 2.13676C159.746 1.9411 160.956 1.77877 162.176 1.65075C194.33 5.02382 219.391 32.218 219.391 65.2655C219.391 98.3129 194.33 125.507 162.176 128.88ZM168.452 1.3004C168.611 1.29925 168.769 1.29867 168.928 1.29867C204.256 1.29867 232.895 29.9376 232.895 65.2655C232.895 100.593 204.256 129.232 168.928 129.232L168.823 129.232C168.699 129.232 168.576 129.231 168.452 129.231C198.255 123.193 220.69 96.8493 220.69 65.2655C220.69 33.6816 198.255 7.33771 168.452 1.3004ZM155.9 1.3004C155.742 1.29925 155.583 1.29867 155.424 1.29867C155.266 1.29867 155.107 1.29925 154.948 1.30041C155.107 1.33259 155.266 1.36535 155.424 1.39869C155.583 1.36535 155.741 1.33259 155.9 1.3004ZM152.301 2.13676C151.103 1.94112 149.893 1.7788 148.672 1.65079C147.453 1.77876 146.243 1.94101 145.045 2.13657C146.269 2.45807 147.479 2.81421 148.673 3.20391C149.868 2.81429 151.078 2.4582 152.301 2.13676ZM146.6 3.91931C145.064 3.46478 143.504 3.06637 141.922 2.72646C140.34 3.06638 138.78 3.46479 137.244 3.91931C138.833 4.49783 140.393 5.13634 141.922 5.83208C143.45 5.13633 145.011 4.49783 146.6 3.91931ZM140.369 6.56346C138.673 5.82693 136.939 5.16177 135.17 4.57176C133.401 5.16177 131.667 5.82693 129.97 6.56346C131.75 7.43104 133.485 8.3772 135.17 9.39742C136.855 8.3772 138.589 7.43104 140.369 6.56346ZM123.74 126.612C125.329 126.033 126.889 125.395 128.418 124.699C129.947 125.395 131.507 126.033 133.096 126.612C131.56 127.066 130 127.465 128.418 127.805C126.836 127.465 125.276 127.066 123.74 126.612ZM131.541 128.394C132.765 128.073 133.975 127.717 135.17 127.327C136.365 127.717 137.575 128.073 138.799 128.394C137.6 128.59 136.39 128.752 135.17 128.88C133.949 128.752 132.74 128.59 131.541 128.394ZM141.446 129.231C141.605 129.198 141.763 129.166 141.922 129.132L142.066 129.163C142.176 129.186 142.286 129.208 142.397 129.231C142.238 129.232 142.079 129.232 141.92 129.232C141.762 129.232 141.604 129.232 141.446 129.231ZM141.92 1.29867C142.079 1.29867 142.238 1.29925 142.397 1.3004C142.238 1.33253 142.08 1.36522 141.922 1.39849C141.763 1.36522 141.605 1.33252 141.446 1.30039C141.604 1.29924 141.762 1.29867 141.92 1.29867ZM135.17 1.65066C136.39 1.77865 137.6 1.94095 138.799 2.13657C137.575 2.45807 136.365 2.81421 135.17 3.20391C133.975 2.81419 132.765 2.45802 131.541 2.13651C132.74 1.94091 133.949 1.77863 135.17 1.65066ZM128.418 2.72639C130 3.06632 131.56 3.46475 133.096 3.91931C131.507 4.49783 129.947 5.13633 128.418 5.83208C126.889 5.13629 125.329 4.49776 123.74 3.91921C125.276 3.46469 126.836 3.0663 128.418 2.72639ZM121.666 127.327C120.472 127.717 119.262 128.073 118.038 128.394C119.237 128.59 120.447 128.752 121.667 128.88C122.887 128.752 124.097 128.59 125.295 128.394C124.071 128.073 122.861 127.717 121.666 127.327ZM128.418 129.133C128.26 129.166 128.102 129.198 127.943 129.231C128.102 129.232 128.26 129.232 128.419 129.232C128.577 129.232 128.735 129.232 128.893 129.231C128.734 129.198 128.576 129.166 128.418 129.133ZM128.893 1.30039C128.735 1.29924 128.577 1.29867 128.419 1.29867C128.26 1.29867 128.102 1.29925 127.943 1.3004C128.102 1.3325 128.26 1.36518 128.418 1.39843C128.576 1.36517 128.734 1.33249 128.893 1.30039ZM125.295 2.13651C124.097 1.94096 122.887 1.77872 121.667 1.65075C120.447 1.77876 119.237 1.94107 118.038 2.1367C119.262 2.45813 120.472 2.8142 121.666 3.2038C122.861 2.81413 124.071 2.45799 125.295 2.13651ZM114.44 129.231C114.598 129.198 114.757 129.166 114.915 129.132C115.074 129.166 115.232 129.198 115.391 129.231L115.303 129.231L115.147 129.232C115.07 129.232 114.993 129.232 114.915 129.232C114.757 129.232 114.598 129.232 114.44 129.231ZM114.915 1.29867C115.074 1.29867 115.233 1.29925 115.391 1.3004C115.232 1.33257 115.074 1.36531 114.915 1.39862C114.757 1.36531 114.598 1.33257 114.44 1.3004C114.598 1.29925 114.757 1.29867 114.915 1.29867ZM156.771 65.973C156.346 77.2384 147.234 86.3035 135.892 86.7124C135.978 84.6074 136.105 82.7127 136.295 81.0059C136.875 75.7849 138.023 72.4647 140.2 70.2876C142.378 68.1104 145.698 66.9623 150.919 66.3821C152.665 66.1881 154.607 66.059 156.771 65.973ZM172.474 65.8016C166.858 65.8016 162.103 65.802 158.072 65.9271C157.737 75.9139 150.968 84.2791 141.756 87.0498C164.768 85.7298 184.932 77.516 198.119 65.4462C185.326 53.7373 165.968 45.6573 143.812 43.9795C151.96 47.3045 157.764 55.1487 158.072 64.3774C162.104 64.5026 166.858 64.5029 172.474 64.5029V65.8016ZM150.919 63.9224C152.665 64.1164 154.608 64.2456 156.771 64.3316C156.364 53.488 147.907 44.6826 137.159 43.6722C136.739 43.6651 136.317 43.6602 135.894 43.6577C135.98 45.7365 136.107 47.6096 136.295 49.2986C136.875 54.5196 138.023 57.8398 140.2 60.017C142.378 62.1941 145.698 63.3423 150.919 63.9224ZM133.835 81.0059C134.025 82.7122 134.153 84.6062 134.238 86.7104C122.921 86.2755 113.837 77.2221 113.412 65.9751C115.554 66.0611 117.48 66.1897 119.211 66.3821C124.433 66.9623 127.753 68.1104 129.93 70.2876C132.107 72.4647 133.255 75.7849 133.835 81.0059ZM97.6561 64.5029C103.297 64.5029 108.068 64.5026 112.111 64.3758C112.419 55.1683 118.197 47.3392 126.316 44.0017C104.281 45.7277 85.036 53.7883 72.2989 65.4462C85.4303 77.465 105.479 85.6604 128.37 87.0327C119.188 84.2449 112.446 75.8944 112.111 65.9287C108.068 65.802 103.297 65.8016 97.6561 65.8016V64.5029ZM119.211 63.9224C117.48 64.1148 115.554 64.2435 113.412 64.3295C113.82 53.5055 122.248 44.7129 132.968 43.6775C133.39 43.6693 133.812 43.6634 134.236 43.6598C134.15 45.7378 134.023 47.6101 133.835 49.2986C133.255 54.5196 132.107 57.8398 129.93 60.017C127.753 62.1941 124.433 63.3423 119.211 63.9224Z" fill="#B84040"></path> <path fill-rule="evenodd" clip-rule="evenodd" d="M160.223 130.186C158.004 130.414 155.751 130.531 153.471 130.531C151.191 130.531 148.939 130.414 146.719 130.186C144.5 130.414 142.247 130.531 139.967 130.531C137.688 130.531 135.436 130.414 133.216 130.186C130.997 130.414 128.745 130.531 126.466 130.531C124.186 130.531 121.933 130.414 119.714 130.186C117.494 130.414 115.242 130.531 112.962 130.531C110.683 130.531 108.43 130.414 106.211 130.186C103.991 130.414 101.739 130.531 99.4588 130.531C63.4137 130.531 34.1934 101.311 34.1934 65.2655C34.1934 29.2203 63.4137 0 99.4588 0C101.739 0 103.991 0.116889 106.211 0.344999C108.43 0.116889 110.683 0 112.962 0C115.242 0 117.494 0.116889 119.714 0.345C121.933 0.116889 124.186 0 126.466 0C128.745 0 130.997 0.116856 133.216 0.344903C135.436 0.116856 137.688 0 139.967 0C142.247 0 144.5 0.1169 146.719 0.345032C148.939 0.1169 151.191 0 153.471 0C155.751 0 158.004 0.116889 160.223 0.344999C162.443 0.116889 164.695 0 166.975 0C203.02 0 232.24 29.2203 232.24 65.2655C232.24 101.311 203.02 130.531 166.975 130.531C164.695 130.531 162.443 130.414 160.223 130.186ZM99.6992 129.232C99.6191 129.232 99.539 129.232 99.4588 129.232C64.1309 129.232 35.492 100.593 35.492 65.2655C35.492 29.9376 64.1309 1.29867 99.4588 1.29867C99.6175 1.29867 99.7761 1.29925 99.9346 1.3004C70.1316 7.3377 47.6968 33.6816 47.6968 65.2655C47.6968 96.8493 70.1316 123.193 99.9346 129.231L99.8283 129.231L99.6992 129.232ZM106.211 128.88C74.0564 125.507 48.9955 98.3129 48.9955 65.2655C48.9955 32.218 74.0564 5.02382 106.211 1.65075C107.431 1.77876 108.641 1.94107 109.84 2.1367C81.8474 9.48904 61.2002 34.966 61.2002 65.2655C61.2002 95.5649 81.8475 121.042 109.84 128.394C108.641 128.59 107.431 128.752 106.211 128.88ZM62.4989 65.2655C62.4989 34.5703 84.1193 8.92474 112.962 2.7266C114.544 3.06646 116.104 3.46478 117.639 3.91921C94.1619 12.4663 76.975 34.1066 74.9105 60.0084C72.9614 61.4543 71.1196 62.9725 69.3941 64.5569C69.0737 64.8511 68.7573 65.1475 68.4449 65.4462C68.7573 65.7449 69.0737 66.0414 69.3941 66.3356C71.129 67.9285 72.9815 69.4547 74.9423 70.9077C77.1456 96.6387 94.2783 118.107 117.639 126.612C116.104 127.066 114.544 127.464 112.962 127.804C84.1193 121.606 62.4989 95.9607 62.4989 65.2655ZM76.3424 71.9197C78.9585 97.2301 96.3327 118.161 119.713 125.959C121.482 125.369 123.216 124.704 124.913 123.967C107.314 115.39 94.1476 99.1315 89.775 79.555C84.9131 77.351 80.4104 74.7882 76.3424 71.9197ZM91.2603 80.2123C95.4977 82.0425 99.9946 83.604 104.703 84.8632C109.357 99.6657 119.143 112.194 131.975 120.363C130.193 121.417 128.354 122.388 126.465 123.269C109.01 115.128 95.839 99.3395 91.2603 80.2123ZM106.191 85.2494C114.379 87.309 123.18 88.4606 132.348 88.5319C132.462 92.483 132.463 97.1174 132.463 102.561H133.761C133.761 97.1183 133.762 92.4844 133.876 88.5338C143.116 88.4847 151.986 87.3384 160.235 85.2708C155.508 99.6386 145.829 111.758 133.217 119.609C120.598 111.754 110.916 99.6266 106.191 85.2494ZM161.724 84.8859C157.067 99.6785 147.284 112.198 134.458 120.363C136.241 121.417 138.08 122.388 139.969 123.269C157.412 115.133 170.577 99.3602 175.164 80.2497C170.927 82.0748 166.431 83.6313 161.724 84.8859ZM176.65 79.5942C184.516 76.0383 191.445 71.5439 197.117 66.3356C197.438 66.0414 197.754 65.7449 198.067 65.4462C197.754 65.1475 197.438 64.8511 197.117 64.5569C182.799 51.4103 160.477 42.8125 135.279 42.3746C134.82 42.3325 134.357 42.3037 133.891 42.2888C133.762 38.2268 133.761 33.426 133.761 27.7432H132.463C132.463 33.4268 132.462 38.2282 132.333 42.2906C131.865 42.3066 131.4 42.3366 130.939 42.38C109.609 42.8048 90.3573 49.0769 76.3034 59.0002C78.7808 33.5155 96.213 12.4103 119.713 4.57166C121.482 5.16169 123.216 5.82688 124.913 6.56346C107.194 15.1997 93.9679 31.6218 89.6866 51.3775C90.1759 51.155 90.6688 50.9362 91.1653 50.7211C95.6547 31.413 108.888 15.4603 126.465 7.2623C128.354 8.14322 130.192 9.11368 131.975 10.1682C119.029 18.4091 109.184 31.0874 104.58 46.0614C105.073 45.9291 105.567 45.8002 106.064 45.6745C110.74 31.1254 120.484 18.8481 133.217 10.9215C145.943 18.8439 155.684 31.1124 160.362 45.6514C160.859 45.7765 161.353 45.905 161.846 46.0368C157.239 31.0736 147.397 18.4046 134.458 10.1682C136.241 9.11367 138.08 8.14321 139.969 7.2623C157.534 15.4545 170.76 31.3907 175.259 50.6806C175.755 50.8951 176.248 51.1133 176.738 51.3351C172.447 31.5984 159.227 15.1935 141.521 6.56346C143.217 5.82693 144.951 5.16177 146.72 4.57176C170.201 12.404 187.623 33.4806 190.123 58.9368C190.594 59.268 191.058 59.6032 191.517 59.9425C189.429 34.07 172.251 12.4592 148.794 3.91931C150.33 3.46487 151.889 3.06653 153.471 2.72666C182.314 8.92492 203.934 34.5704 203.934 65.2655C203.934 95.9606 182.314 121.606 153.471 127.804C151.889 127.464 150.33 127.066 148.794 126.612C172.136 118.114 189.259 96.6736 191.485 70.9706C191.024 71.3112 190.557 71.6477 190.084 71.9801C187.447 97.2633 170.082 118.167 146.72 125.959C144.951 125.369 143.217 124.704 141.521 123.967C159.108 115.396 172.268 99.1532 176.65 79.5942ZM133.217 121.134C131.532 122.154 129.797 123.1 128.017 123.967C129.714 124.704 131.448 125.369 133.217 125.959C134.986 125.369 136.72 124.704 138.416 123.967C136.636 123.1 134.902 122.154 133.217 121.134ZM139.969 124.699C138.44 125.395 136.88 126.033 135.29 126.612C136.827 127.066 138.387 127.465 139.969 127.804C141.55 127.465 143.111 127.066 144.647 126.612C143.058 126.033 141.497 125.395 139.969 124.699ZM146.72 127.327C145.525 127.717 144.315 128.073 143.091 128.394C144.29 128.59 145.499 128.752 146.719 128.88C147.94 128.752 149.15 128.59 150.348 128.394C149.125 128.073 147.915 127.717 146.72 127.327ZM153.471 129.132C153.313 129.166 153.154 129.198 152.995 129.231C153.154 129.232 153.312 129.232 153.471 129.232C153.63 129.232 153.789 129.232 153.947 129.231C153.788 129.198 153.63 129.166 153.471 129.132ZM160.223 128.88C159.003 128.752 157.793 128.59 156.594 128.394C184.586 121.042 205.233 95.5648 205.233 65.2655C205.233 34.9661 184.586 9.48918 156.594 2.13676C157.793 1.9411 159.003 1.77877 160.223 1.65075C192.377 5.02382 217.438 32.218 217.438 65.2655C217.438 98.3129 192.377 125.507 160.223 128.88ZM166.499 1.3004C166.658 1.29925 166.816 1.29867 166.975 1.29867C202.303 1.29867 230.942 29.9376 230.942 65.2655C230.942 100.593 202.303 129.232 166.975 129.232L166.87 129.232C166.746 129.232 166.623 129.231 166.499 129.231C196.302 123.193 218.737 96.8493 218.737 65.2655C218.737 33.6816 196.302 7.33771 166.499 1.3004ZM153.947 1.3004C153.789 1.29925 153.63 1.29867 153.471 1.29867C153.312 1.29867 153.154 1.29925 152.995 1.30041C153.154 1.33259 153.313 1.36535 153.471 1.39869C153.63 1.36535 153.788 1.33259 153.947 1.3004ZM150.348 2.13676C149.15 1.94112 147.94 1.7788 146.719 1.65079C145.499 1.77876 144.29 1.94101 143.091 2.13657C144.315 2.45807 145.525 2.81421 146.72 3.20391C147.915 2.81429 149.125 2.4582 150.348 2.13676ZM144.647 3.91931C143.111 3.46478 141.55 3.06637 139.969 2.72646C138.387 3.06638 136.827 3.46479 135.29 3.91931C136.88 4.49783 138.44 5.13634 139.969 5.83208C141.497 5.13633 143.057 4.49783 144.647 3.91931ZM138.416 6.56346C136.72 5.82693 134.986 5.16177 133.217 4.57176C131.448 5.16177 129.714 5.82693 128.017 6.56346C129.797 7.43104 131.532 8.3772 133.217 9.39742C134.902 8.3772 136.636 7.43104 138.416 6.56346ZM121.787 126.612C123.376 126.033 124.936 125.395 126.465 124.699C127.994 125.395 129.554 126.033 131.143 126.612C129.607 127.066 128.047 127.465 126.465 127.805C124.883 127.465 123.323 127.066 121.787 126.612ZM129.588 128.394C130.812 128.073 132.022 127.717 133.217 127.327C134.412 127.717 135.622 128.073 136.846 128.394C135.647 128.59 134.437 128.752 133.217 128.88C131.996 128.752 130.786 128.59 129.588 128.394ZM139.493 129.231C139.652 129.198 139.81 129.166 139.969 129.132L140.113 129.163C140.223 129.186 140.333 129.208 140.444 129.231C140.285 129.232 140.126 129.232 139.967 129.232C139.809 129.232 139.651 129.232 139.493 129.231ZM139.967 1.29867C140.126 1.29867 140.285 1.29925 140.444 1.3004C140.285 1.33253 140.127 1.36522 139.969 1.39849C139.81 1.36522 139.652 1.33252 139.493 1.30039C139.651 1.29924 139.809 1.29867 139.967 1.29867ZM133.217 1.65066C134.437 1.77865 135.647 1.94095 136.846 2.13657C135.622 2.45807 134.412 2.81421 133.217 3.20391C132.022 2.81419 130.812 2.45802 129.588 2.13651C130.786 1.94091 131.996 1.77863 133.217 1.65066ZM126.465 2.72639C128.047 3.06632 129.607 3.46475 131.143 3.91931C129.554 4.49783 127.994 5.13633 126.465 5.83208C124.936 5.13629 123.376 4.49776 121.787 3.91921C123.323 3.46469 124.883 3.0663 126.465 2.72639ZM119.713 127.327C118.518 127.717 117.309 128.073 116.085 128.394C117.284 128.59 118.494 128.752 119.714 128.88C120.934 128.752 122.143 128.59 123.342 128.394C122.118 128.073 120.908 127.717 119.713 127.327ZM126.465 129.133C126.307 129.166 126.148 129.198 125.99 129.231C126.148 129.232 126.307 129.232 126.466 129.232C126.624 129.232 126.782 129.232 126.94 129.231C126.781 129.198 126.623 129.166 126.465 129.133ZM126.94 1.30039C126.782 1.29924 126.624 1.29867 126.466 1.29867C126.307 1.29867 126.148 1.29925 125.99 1.3004C126.148 1.3325 126.307 1.36518 126.465 1.39843C126.623 1.36517 126.781 1.33249 126.94 1.30039ZM123.342 2.13651C122.143 1.94096 120.934 1.77872 119.714 1.65075C118.494 1.77876 117.284 1.94107 116.085 2.1367C117.309 2.45813 118.518 2.8142 119.713 3.2038C120.908 2.81413 122.118 2.45799 123.342 2.13651ZM112.487 129.231C112.645 129.198 112.804 129.166 112.962 129.132C113.121 129.166 113.279 129.198 113.438 129.231L113.35 129.231L113.194 129.232C113.116 129.232 113.039 129.232 112.962 129.232C112.804 129.232 112.645 129.232 112.487 129.231ZM112.962 1.29867C113.121 1.29867 113.28 1.29925 113.438 1.3004C113.279 1.33257 113.121 1.36531 112.962 1.39862C112.804 1.36531 112.645 1.33257 112.487 1.3004C112.645 1.29925 112.804 1.29867 112.962 1.29867ZM154.818 65.973C154.393 77.2384 145.281 86.3035 133.939 86.7124C134.025 84.6074 134.152 82.7127 134.342 81.0059C134.922 75.7849 136.07 72.4647 138.247 70.2876C140.424 68.1104 143.745 66.9623 148.966 66.3821C150.712 66.1881 152.654 66.059 154.818 65.973ZM170.521 65.8016C164.905 65.8016 160.15 65.802 156.119 65.9271C155.784 75.9139 149.014 84.2791 139.803 87.0498C162.815 85.7298 182.979 77.516 196.166 65.4462C183.373 53.7373 164.015 45.6573 141.859 43.9795C150.007 47.3045 155.811 55.1487 156.119 64.3774C160.15 64.5026 164.905 64.5029 170.521 64.5029V65.8016ZM148.966 63.9224C150.712 64.1164 152.654 64.2456 154.818 64.3316C154.41 53.488 145.954 44.6826 135.206 43.6722C134.786 43.6651 134.364 43.6602 133.941 43.6577C134.027 45.7365 134.154 47.6096 134.342 49.2986C134.922 54.5196 136.07 57.8398 138.247 60.017C140.424 62.1941 143.745 63.3423 148.966 63.9224ZM131.882 81.0059C132.072 82.7122 132.199 84.6062 132.285 86.7104C120.968 86.2755 111.884 77.2221 111.459 65.9751C113.601 66.0611 115.527 66.1897 117.258 66.3821C122.479 66.9623 125.8 68.1104 127.977 70.2876C130.154 72.4647 131.302 75.7849 131.882 81.0059ZM95.7029 64.5029C101.344 64.5029 106.115 64.5026 110.158 64.3758C110.466 55.1683 116.244 47.3392 124.363 44.0017C102.328 45.7277 83.0829 53.7883 70.3458 65.4462C83.4772 77.465 103.526 85.6604 126.417 87.0327C117.235 84.2449 110.493 75.8944 110.158 65.9287C106.115 65.802 101.344 65.8016 95.7029 65.8016V64.5029ZM117.258 63.9224C115.526 64.1148 113.601 64.2435 111.459 64.3295C111.867 53.5055 120.295 44.7129 131.015 43.6775C131.437 43.6693 131.859 43.6634 132.283 43.6598C132.197 45.7378 132.07 47.6101 131.882 49.2986C131.302 54.5196 130.154 57.8398 127.977 60.017C125.8 62.1941 122.479 63.3423 117.258 63.9224Z" fill="#B84040"></path> <path fill-rule="evenodd" clip-rule="evenodd" d="M160.223 130.186C158.004 130.414 155.751 130.531 153.471 130.531C151.191 130.531 148.939 130.414 146.719 130.186C144.5 130.414 142.247 130.531 139.967 130.531C137.688 130.531 135.436 130.414 133.216 130.186C130.997 130.414 128.745 130.531 126.466 130.531C124.186 130.531 121.933 130.414 119.714 130.186C117.494 130.414 115.242 130.531 112.962 130.531C110.683 130.531 108.43 130.414 106.211 130.186C103.991 130.414 101.739 130.531 99.4588 130.531C63.4137 130.531 34.1934 101.311 34.1934 65.2655C34.1934 29.2203 63.4137 0 99.4588 0C101.739 0 103.991 0.116889 106.211 0.344999C108.43 0.116889 110.683 0 112.962 0C115.242 0 117.494 0.116889 119.714 0.345C121.933 0.116889 124.186 0 126.466 0C128.745 0 130.997 0.116856 133.216 0.344903C135.436 0.116856 137.688 0 139.967 0C142.247 0 144.5 0.1169 146.719 0.345032C148.939 0.1169 151.191 0 153.471 0C155.751 0 158.004 0.116889 160.223 0.344999C162.443 0.116889 164.695 0 166.975 0C203.02 0 232.24 29.2203 232.24 65.2655C232.24 101.311 203.02 130.531 166.975 130.531C164.695 130.531 162.443 130.414 160.223 130.186ZM99.6992 129.232C99.6191 129.232 99.539 129.232 99.4588 129.232C64.1309 129.232 35.492 100.593 35.492 65.2655C35.492 29.9376 64.1309 1.29867 99.4588 1.29867C99.6175 1.29867 99.7761 1.29925 99.9346 1.3004C70.1316 7.3377 47.6968 33.6816 47.6968 65.2655C47.6968 96.8493 70.1316 123.193 99.9346 129.231L99.8283 129.231L99.6992 129.232ZM106.211 128.88C74.0564 125.507 48.9955 98.3129 48.9955 65.2655C48.9955 32.218 74.0564 5.02382 106.211 1.65075C107.431 1.77876 108.641 1.94107 109.84 2.1367C81.8474 9.48904 61.2002 34.966 61.2002 65.2655C61.2002 95.5649 81.8475 121.042 109.84 128.394C108.641 128.59 107.431 128.752 106.211 128.88ZM62.4989 65.2655C62.4989 34.5703 84.1193 8.92474 112.962 2.7266C114.544 3.06646 116.104 3.46478 117.639 3.91921C94.1619 12.4663 76.975 34.1066 74.9105 60.0084C72.9614 61.4543 71.1196 62.9725 69.3941 64.5569C69.0737 64.8511 68.7573 65.1475 68.4449 65.4462C68.7573 65.7449 69.0737 66.0414 69.3941 66.3356C71.129 67.9285 72.9815 69.4547 74.9423 70.9077C77.1456 96.6387 94.2783 118.107 117.639 126.612C116.104 127.066 114.544 127.464 112.962 127.804C84.1193 121.606 62.4989 95.9607 62.4989 65.2655ZM76.3424 71.9197C78.9585 97.2301 96.3327 118.161 119.713 125.959C121.482 125.369 123.216 124.704 124.913 123.967C107.314 115.39 94.1476 99.1315 89.775 79.555C84.9131 77.351 80.4104 74.7882 76.3424 71.9197ZM91.2603 80.2123C95.4977 82.0425 99.9946 83.604 104.703 84.8632C109.357 99.6657 119.143 112.194 131.975 120.363C130.193 121.417 128.354 122.388 126.465 123.269C109.01 115.128 95.839 99.3395 91.2603 80.2123ZM106.191 85.2494C114.379 87.309 123.18 88.4606 132.348 88.5319C132.462 92.483 132.463 97.1174 132.463 102.561H133.761C133.761 97.1183 133.762 92.4844 133.876 88.5338C143.116 88.4847 151.986 87.3384 160.235 85.2708C155.508 99.6386 145.829 111.758 133.217 119.609C120.598 111.754 110.916 99.6266 106.191 85.2494ZM161.724 84.8859C157.067 99.6785 147.284 112.198 134.458 120.363C136.241 121.417 138.08 122.388 139.969 123.269C157.412 115.133 170.577 99.3602 175.164 80.2497C170.927 82.0748 166.431 83.6313 161.724 84.8859ZM176.65 79.5942C184.516 76.0383 191.445 71.5439 197.117 66.3356C197.438 66.0414 197.754 65.7449 198.067 65.4462C197.754 65.1475 197.438 64.8511 197.117 64.5569C182.799 51.4103 160.477 42.8125 135.279 42.3746C134.82 42.3325 134.357 42.3037 133.891 42.2888C133.762 38.2268 133.761 33.426 133.761 27.7432H132.463C132.463 33.4268 132.462 38.2282 132.333 42.2906C131.865 42.3066 131.4 42.3366 130.939 42.38C109.609 42.8048 90.3573 49.0769 76.3034 59.0002C78.7808 33.5155 96.213 12.4103 119.713 4.57166C121.482 5.16169 123.216 5.82688 124.913 6.56346C107.194 15.1997 93.9679 31.6218 89.6866 51.3775C90.1759 51.155 90.6688 50.9362 91.1653 50.7211C95.6547 31.413 108.888 15.4603 126.465 7.2623C128.354 8.14322 130.192 9.11368 131.975 10.1682C119.029 18.4091 109.184 31.0874 104.58 46.0614C105.073 45.9291 105.567 45.8002 106.064 45.6745C110.74 31.1254 120.484 18.8481 133.217 10.9215C145.943 18.8439 155.684 31.1124 160.362 45.6514C160.859 45.7765 161.353 45.905 161.846 46.0368C157.239 31.0736 147.397 18.4046 134.458 10.1682C136.241 9.11367 138.08 8.14321 139.969 7.2623C157.534 15.4545 170.76 31.3907 175.259 50.6806C175.755 50.8951 176.248 51.1133 176.738 51.3351C172.447 31.5984 159.227 15.1935 141.521 6.56346C143.217 5.82693 144.951 5.16177 146.72 4.57176C170.201 12.404 187.623 33.4806 190.123 58.9368C190.594 59.268 191.058 59.6032 191.517 59.9425C189.429 34.07 172.251 12.4592 148.794 3.91931C150.33 3.46487 151.889 3.06653 153.471 2.72666C182.314 8.92492 203.934 34.5704 203.934 65.2655C203.934 95.9606 182.314 121.606 153.471 127.804C151.889 127.464 150.33 127.066 148.794 126.612C172.136 118.114 189.259 96.6736 191.485 70.9706C191.024 71.3112 190.557 71.6477 190.084 71.9801C187.447 97.2633 170.082 118.167 146.72 125.959C144.951 125.369 143.217 124.704 141.521 123.967C159.108 115.396 172.268 99.1532 176.65 79.5942ZM133.217 121.134C131.532 122.154 129.797 123.1 128.017 123.967C129.714 124.704 131.448 125.369 133.217 125.959C134.986 125.369 136.72 124.704 138.416 123.967C136.636 123.1 134.902 122.154 133.217 121.134ZM139.969 124.699C138.44 125.395 136.88 126.033 135.29 126.612C136.827 127.066 138.387 127.465 139.969 127.804C141.55 127.465 143.111 127.066 144.647 126.612C143.058 126.033 141.497 125.395 139.969 124.699ZM146.72 127.327C145.525 127.717 144.315 128.073 143.091 128.394C144.29 128.59 145.499 128.752 146.719 128.88C147.94 128.752 149.15 128.59 150.348 128.394C149.125 128.073 147.915 127.717 146.72 127.327ZM153.471 129.132C153.313 129.166 153.154 129.198 152.995 129.231C153.154 129.232 153.312 129.232 153.471 129.232C153.63 129.232 153.789 129.232 153.947 129.231C153.788 129.198 153.63 129.166 153.471 129.132ZM160.223 128.88C159.003 128.752 157.793 128.59 156.594 128.394C184.586 121.042 205.233 95.5648 205.233 65.2655C205.233 34.9661 184.586 9.48918 156.594 2.13676C157.793 1.9411 159.003 1.77877 160.223 1.65075C192.377 5.02382 217.438 32.218 217.438 65.2655C217.438 98.3129 192.377 125.507 160.223 128.88ZM166.499 1.3004C166.658 1.29925 166.816 1.29867 166.975 1.29867C202.303 1.29867 230.942 29.9376 230.942 65.2655C230.942 100.593 202.303 129.232 166.975 129.232L166.87 129.232C166.746 129.232 166.623 129.231 166.499 129.231C196.302 123.193 218.737 96.8493 218.737 65.2655C218.737 33.6816 196.302 7.33771 166.499 1.3004ZM153.947 1.3004C153.789 1.29925 153.63 1.29867 153.471 1.29867C153.312 1.29867 153.154 1.29925 152.995 1.30041C153.154 1.33259 153.313 1.36535 153.471 1.39869C153.63 1.36535 153.788 1.33259 153.947 1.3004ZM150.348 2.13676C149.15 1.94112 147.94 1.7788 146.719 1.65079C145.499 1.77876 144.29 1.94101 143.091 2.13657C144.315 2.45807 145.525 2.81421 146.72 3.20391C147.915 2.81429 149.125 2.4582 150.348 2.13676ZM144.647 3.91931C143.111 3.46478 141.55 3.06637 139.969 2.72646C138.387 3.06638 136.827 3.46479 135.29 3.91931C136.88 4.49783 138.44 5.13634 139.969 5.83208C141.497 5.13633 143.057 4.49783 144.647 3.91931ZM138.416 6.56346C136.72 5.82693 134.986 5.16177 133.217 4.57176C131.448 5.16177 129.714 5.82693 128.017 6.56346C129.797 7.43104 131.532 8.3772 133.217 9.39742C134.902 8.3772 136.636 7.43104 138.416 6.56346ZM121.787 126.612C123.376 126.033 124.936 125.395 126.465 124.699C127.994 125.395 129.554 126.033 131.143 126.612C129.607 127.066 128.047 127.465 126.465 127.805C124.883 127.465 123.323 127.066 121.787 126.612ZM129.588 128.394C130.812 128.073 132.022 127.717 133.217 127.327C134.412 127.717 135.622 128.073 136.846 128.394C135.647 128.59 134.437 128.752 133.217 128.88C131.996 128.752 130.786 128.59 129.588 128.394ZM139.493 129.231C139.652 129.198 139.81 129.166 139.969 129.132L140.113 129.163C140.223 129.186 140.333 129.208 140.444 129.231C140.285 129.232 140.126 129.232 139.967 129.232C139.809 129.232 139.651 129.232 139.493 129.231ZM139.967 1.29867C140.126 1.29867 140.285 1.29925 140.444 1.3004C140.285 1.33253 140.127 1.36522 139.969 1.39849C139.81 1.36522 139.652 1.33252 139.493 1.30039C139.651 1.29924 139.809 1.29867 139.967 1.29867ZM133.217 1.65066C134.437 1.77865 135.647 1.94095 136.846 2.13657C135.622 2.45807 134.412 2.81421 133.217 3.20391C132.022 2.81419 130.812 2.45802 129.588 2.13651C130.786 1.94091 131.996 1.77863 133.217 1.65066ZM126.465 2.72639C128.047 3.06632 129.607 3.46475 131.143 3.91931C129.554 4.49783 127.994 5.13633 126.465 5.83208C124.936 5.13629 123.376 4.49776 121.787 3.91921C123.323 3.46469 124.883 3.0663 126.465 2.72639ZM119.713 127.327C118.518 127.717 117.309 128.073 116.085 128.394C117.284 128.59 118.494 128.752 119.714 128.88C120.934 128.752 122.143 128.59 123.342 128.394C122.118 128.073 120.908 127.717 119.713 127.327ZM126.465 129.133C126.307 129.166 126.148 129.198 125.99 129.231C126.148 129.232 126.307 129.232 126.466 129.232C126.624 129.232 126.782 129.232 126.94 129.231C126.781 129.198 126.623 129.166 126.465 129.133ZM126.94 1.30039C126.782 1.29924 126.624 1.29867 126.466 1.29867C126.307 1.29867 126.148 1.29925 125.99 1.3004C126.148 1.3325 126.307 1.36518 126.465 1.39843C126.623 1.36517 126.781 1.33249 126.94 1.30039ZM123.342 2.13651C122.143 1.94096 120.934 1.77872 119.714 1.65075C118.494 1.77876 117.284 1.94107 116.085 2.1367C117.309 2.45813 118.518 2.8142 119.713 3.2038C120.908 2.81413 122.118 2.45799 123.342 2.13651ZM112.487 129.231C112.645 129.198 112.804 129.166 112.962 129.132C113.121 129.166 113.279 129.198 113.438 129.231L113.35 129.231L113.194 129.232C113.116 129.232 113.039 129.232 112.962 129.232C112.804 129.232 112.645 129.232 112.487 129.231ZM112.962 1.29867C113.121 1.29867 113.28 1.29925 113.438 1.3004C113.279 1.33257 113.121 1.36531 112.962 1.39862C112.804 1.36531 112.645 1.33257 112.487 1.3004C112.645 1.29925 112.804 1.29867 112.962 1.29867ZM154.818 65.973C154.393 77.2384 145.281 86.3035 133.939 86.7124C134.025 84.6074 134.152 82.7127 134.342 81.0059C134.922 75.7849 136.07 72.4647 138.247 70.2876C140.424 68.1104 143.745 66.9623 148.966 66.3821C150.712 66.1881 152.654 66.059 154.818 65.973ZM170.521 65.8016C164.905 65.8016 160.15 65.802 156.119 65.9271C155.784 75.9139 149.014 84.2791 139.803 87.0498C162.815 85.7298 182.979 77.516 196.166 65.4462C183.373 53.7373 164.015 45.6573 141.859 43.9795C150.007 47.3045 155.811 55.1487 156.119 64.3774C160.15 64.5026 164.905 64.5029 170.521 64.5029V65.8016ZM148.966 63.9224C150.712 64.1164 152.654 64.2456 154.818 64.3316C154.41 53.488 145.954 44.6826 135.206 43.6722C134.786 43.6651 134.364 43.6602 133.941 43.6577C134.027 45.7365 134.154 47.6096 134.342 49.2986C134.922 54.5196 136.07 57.8398 138.247 60.017C140.424 62.1941 143.745 63.3423 148.966 63.9224ZM131.882 81.0059C132.072 82.7122 132.199 84.6062 132.285 86.7104C120.968 86.2755 111.884 77.2221 111.459 65.9751C113.601 66.0611 115.527 66.1897 117.258 66.3821C122.479 66.9623 125.8 68.1104 127.977 70.2876C130.154 72.4647 131.302 75.7849 131.882 81.0059ZM95.7029 64.5029C101.344 64.5029 106.115 64.5026 110.158 64.3758C110.466 55.1683 116.244 47.3392 124.363 44.0017C102.328 45.7277 83.0829 53.7883 70.3458 65.4462C83.4772 77.465 103.526 85.6604 126.417 87.0327C117.235 84.2449 110.493 75.8944 110.158 65.9287C106.115 65.802 101.344 65.8016 95.7029 65.8016V64.5029ZM117.258 63.9224C115.526 64.1148 113.601 64.2435 111.459 64.3295C111.867 53.5055 120.295 44.7129 131.015 43.6775C131.437 43.6693 131.859 43.6634 132.283 43.6598C132.197 45.7378 132.07 47.6101 131.882 49.2986C131.302 54.5196 130.154 57.8398 127.977 60.017C125.8 62.1941 122.479 63.3423 117.258 63.9224Z" fill="#B84040"></path> <path d="M9.91211 180.052H18.4082L15.4785 198.558H0L4.39453 170.58H19.873L19.3359 174.242H7.76367L4.44336 195.043H12.3047L14.1113 183.519H9.32617L9.91211 180.052Z" fill="#B84040"></path> <path d="M29.2832 194.75H41.0996L40.4648 198.558H24.9863L29.3809 170.58L33.0918 170.531L29.2832 194.75Z" fill="#B84040"></path> <path d="M55.8809 174.144H52.3164L52.8535 170.58H63.4492L62.9121 174.144H59.543L56.2715 194.945H59.8848L59.2988 198.558H48.752L49.3379 194.945H52.5605L55.8809 174.144Z" fill="#B84040"></path> <path d="M77.0098 198.558H73.2988L77.1562 174.144H71.1016L71.6387 170.58H87.166L86.6289 174.144H80.8184L77.0098 198.558Z" fill="#B84040"></path> <path d="M107.904 174.193H100.043L96.7227 195.043H107.904L107.367 198.558H92.2793L96.6738 170.58H112.152L110.932 178.539H107.221L107.904 174.193Z" fill="#B84040"></path> <path d="M131.768 180.052H123.857L125.371 170.58H121.66L117.266 198.558H120.977L123.32 183.568H131.23L128.838 198.558H132.744L137.139 170.58H133.281L131.768 180.052Z" fill="#B84040"></path> <path d="M163.625 180.052H172.121L169.191 198.558H153.713L158.107 170.58H173.586L173.049 174.242H161.477L158.156 195.043H166.018L167.824 183.519H163.039L163.625 180.052Z" fill="#B84040"></path> <path d="M198.572 170.58L194.178 198.558H178.699L183.094 170.58H186.805L182.947 195.043H190.857L194.715 170.58H198.572Z" fill="#B84040"></path> <path d="M209.594 174.144H206.029L206.566 170.58H217.162L216.625 174.144H213.256L209.984 194.945H213.598L213.012 198.558H202.465L203.051 194.945H206.273L209.594 174.144Z" fill="#B84040"></path> <path d="M225.303 194.75H237.119L236.484 198.558H221.006L225.4 170.58L229.111 170.531L225.303 194.75Z" fill="#B84040"></path> <path d="M250.289 194.75H256.686L257.857 193.578L260.738 175.56L259.957 174.095H253.512L250.289 194.75ZM245.992 198.558L250.387 170.58H261.373L264.889 177.074L262.447 192.552L256.49 198.558H245.992Z" fill="#B84040"></path> </svg> 