<svg width="272" height="192" viewBox="0 0 272 192" fill="none" xmlns="http://www.w3.org/2000/svg">
<path d="M97.1607 25.7252C135.839 26.367 166.673 58.2763 166.032 96.9929C165.391 135.714 133.518 166.583 94.8443 165.942C56.1663 165.3 25.3316 133.39 25.9727 94.6738C26.6138 55.9526 58.4875 25.0833 97.1607 25.7252Z" fill="url(#paint0_linear_20_2722)"/>
<path d="M143.407 143.292C169.588 117.082 169.588 74.5855 143.407 48.3747C117.225 22.164 74.7768 22.164 48.5954 48.3747C22.4139 74.5855 22.414 117.082 48.5954 143.292C74.7768 169.503 117.225 169.503 143.407 143.292Z" fill="#F2F2F2"/>
<path d="M70.0035 96.5204C70.0035 94.8614 70.0035 93.2025 70.0035 91.54C70.131 90.7937 70.2691 90.0473 70.3824 89.2974C72.8999 72.5983 88.685 60.8619 105.309 63.3273C122.057 65.8104 133.608 80.6454 131.819 97.3764C130.477 109.948 121.629 120.425 109.42 123.81C107.483 124.348 105.472 124.609 103.493 124.998H98.5073C97.7283 124.867 96.9528 124.719 96.1703 124.606C84.1527 122.827 73.9587 113.63 71.0268 101.872C70.5878 100.114 70.3364 98.3067 70 96.5204H70.0035ZM101.007 81.4165C104.024 84.4727 106.906 87.3909 109.707 90.2277C111.435 88.4909 113.085 86.8355 114.657 85.2544C110.128 80.7303 105.536 76.1461 101.014 71.6291C96.4996 76.1461 91.9142 80.7339 87.3395 85.311C88.9081 86.8638 90.5687 88.5122 92.2754 90.2029C95.0974 87.3626 97.969 84.4762 101.007 81.4201V81.4165ZM109.576 97.6134C106.683 100.507 103.787 103.404 100.706 106.485C97.8628 103.644 94.9664 100.747 92.1904 97.9706C90.5722 99.5801 88.9328 101.211 87.4669 102.672C92.0134 107.213 96.6235 111.819 101.042 116.23C105.511 111.766 110.103 107.185 114.636 102.657C113.113 101.14 111.477 99.5058 109.583 97.6134H109.576ZM101.032 89.1206C99.3818 90.7335 97.6858 92.3925 96.0853 93.9559C97.7495 95.6255 99.4243 97.3021 101.014 98.8974C102.639 97.3127 104.335 95.6538 105.986 94.0443C104.332 92.4031 102.671 90.7547 101.032 89.1241V89.1206ZM123.516 93.9913C121.909 92.396 120.248 90.7477 118.633 89.1453C117.008 90.776 115.355 92.4314 113.836 93.9559C115.443 95.5689 117.111 97.242 118.672 98.8054C120.244 97.2455 121.884 95.6149 123.516 93.9913ZM83.3702 98.8797C85.0096 97.2278 86.6561 95.5689 88.207 94.009C86.6313 92.4278 84.9848 90.7724 83.4481 89.2302C81.8405 90.8113 80.1799 92.4491 78.6113 93.9913C80.1905 95.6149 81.8228 97.2915 83.3702 98.8797Z" fill="#6D69A8"/>
<path d="M0.271606 95.8357C0.271606 148.677 43.2175 191.671 96.0001 191.671V165.956C57.3783 165.956 25.9586 134.501 25.9586 95.8357C25.9586 57.1707 57.3783 25.7158 96.0001 25.7158V0C43.2175 0 0.271606 42.9893 0.271606 95.8357Z" fill="#6D69A8"/>
<path d="M272 95.831C272 105.187 264.395 112.8 255.05 112.8C245.705 112.8 238.1 105.187 238.1 95.831C238.1 86.4751 245.705 78.8621 255.05 78.8621C264.395 78.8621 272 86.4751 272 95.831ZM241.32 95.831C241.32 103.411 247.483 109.581 255.055 109.581C262.627 109.581 268.785 103.411 268.785 95.831C268.785 88.2507 262.627 82.0853 255.055 82.0853C247.483 82.0853 241.32 88.2507 241.32 95.831Z" fill="#6D69A8"/>
<path d="M263.827 97.9039C264.972 93.0462 261.967 88.1788 257.115 87.0323C252.262 85.8858 247.4 88.8943 246.255 93.752C245.11 98.6097 248.115 103.477 252.967 104.624C257.82 105.77 262.682 102.762 263.827 97.9039Z" fill="#6D69A8"/>
<path d="M239.71 94.2241H166.042V97.4427H239.71V94.2241Z" fill="#6D69A8"/>
<defs>
<linearGradient id="paint0_linear_20_2722" x1="41.3167" y1="138.886" x2="155.703" y2="49.2339" gradientUnits="userSpaceOnUse">
<stop stop-color="white"/>
<stop offset="1" stop-color="#D7D6D6"/>
</linearGradient>
</defs>
</svg>
