<svg width="272" height="193" viewBox="0 0 272 193" fill="none" xmlns="http://www.w3.org/2000/svg">
<path d="M97.1607 26.0584C135.839 26.7003 166.673 58.6096 166.032 97.3261C165.391 136.047 133.518 166.917 94.8443 166.275C56.1663 165.633 25.3316 133.724 25.9727 95.0071C26.6138 56.2858 58.4875 25.4166 97.1607 26.0584Z" fill="url(#paint0_linear_20_2716)"/>
<path d="M143.41 143.628C169.591 117.418 169.591 74.9217 143.41 48.7109C117.228 22.5002 74.7796 22.5002 48.5982 48.7109C22.4168 74.9217 22.4168 117.418 48.5982 143.628C74.7796 169.839 117.228 169.839 143.41 143.628Z" fill="#F2F2F2"/>
<g clip-path="url(#clip0_20_2716)">
<path d="M80.9863 133C74.7339 133 69.6472 127.929 69.6472 121.696C69.6472 121.186 70.0623 120.772 70.5738 120.772C71.0852 120.772 71.5003 121.186 71.5003 121.696C71.5003 126.911 75.755 131.152 80.9863 131.152C86.2175 131.152 90.4722 126.911 90.4722 121.696C90.4722 121.186 90.8873 120.772 91.3988 120.772C91.9102 120.772 92.3253 121.186 92.3253 121.696C92.3253 127.929 87.2386 133 80.9863 133Z" fill="#0B545B"/>
<path d="M87.3534 122.503C86.842 122.503 86.4269 122.089 86.4269 121.579C86.4269 119.652 85.2761 117.921 83.4953 117.17C83.0246 116.97 82.8041 116.429 83.0024 115.96C83.2025 115.49 83.7455 115.27 84.2162 115.468C86.6845 116.508 88.2781 118.908 88.2781 121.579C88.2781 122.089 87.863 122.503 87.3516 122.503H87.3534Z" fill="#0B545B"/>
<path d="M81.6274 128.212C77.9602 128.212 74.9749 125.237 74.9749 121.579C74.9749 121.07 75.3899 120.656 75.9014 120.656C76.4128 120.656 76.8279 121.07 76.8279 121.579C76.8279 124.218 78.9812 126.364 81.6274 126.364C82.1389 126.364 82.554 126.778 82.554 127.288C82.554 127.798 82.1389 128.212 81.6274 128.212Z" fill="#0B545B"/>
<path d="M113.69 131.153C107.437 131.153 102.35 126.082 102.35 119.849C102.35 119.339 102.766 118.925 103.277 118.925C103.788 118.925 104.204 119.339 104.204 119.849C104.204 125.064 108.458 129.305 113.69 129.305C118.921 129.305 123.175 125.064 123.175 119.849C123.175 119.339 123.591 118.925 124.102 118.925C124.613 118.925 125.029 119.339 125.029 119.849C125.029 126.082 119.942 131.153 113.69 131.153Z" fill="#0B545B"/>
<path d="M134.073 115.45C133.562 115.45 133.147 115.036 133.147 114.526C133.147 112.326 131.351 110.536 129.144 110.536C126.937 110.536 125.142 112.326 125.142 114.526C125.142 115.036 124.726 115.45 124.215 115.45C123.704 115.45 123.288 115.036 123.288 114.526C123.288 111.308 125.914 108.688 129.144 108.688C132.374 108.688 135 111.306 135 114.526C135 115.036 134.585 115.45 134.073 115.45Z" fill="#0B545B"/>
<path d="M71.8097 117.851C71.2983 117.851 70.8832 117.437 70.8832 116.928C70.8832 114.727 69.0876 112.937 66.8805 112.937C64.6735 112.937 62.8779 114.727 62.8779 116.928C62.8779 117.437 62.4628 117.851 61.9513 117.851C61.4399 117.851 61.0248 117.437 61.0248 116.928C61.0248 113.709 63.6506 111.09 66.8805 111.09C70.1105 111.09 72.7363 113.708 72.7363 116.928C72.7363 117.437 72.3212 117.851 71.8097 117.851Z" fill="#0B545B"/>
<path d="M113.693 126.547C111.99 126.547 110.285 125.9 108.99 124.607C107.734 123.355 107.041 121.688 107.041 119.919C107.041 118.149 107.732 116.482 108.99 115.23C110.246 113.977 111.916 113.288 113.693 113.288C115.47 113.288 117.14 113.977 118.396 115.23C118.758 115.59 118.758 116.176 118.396 116.536C118.035 116.896 117.448 116.896 117.086 116.536C116.18 115.633 114.974 115.134 113.693 115.134C112.413 115.134 111.206 115.631 110.3 116.536C109.394 117.439 108.894 118.642 108.894 119.919C108.894 121.195 109.392 122.398 110.3 123.301C112.172 125.167 115.216 125.167 117.088 123.301C117.449 122.941 118.037 122.941 118.398 123.301C118.76 123.661 118.76 124.247 118.398 124.607C117.101 125.9 115.398 126.547 113.695 126.547H113.693Z" fill="#0B545B"/>
<path d="M80.2802 116.59C78.1047 116.59 76.335 114.825 76.335 112.656C76.335 110.488 78.1047 108.723 80.2802 108.723C80.7916 108.723 81.2067 109.137 81.2067 109.647C81.2067 110.157 80.7916 110.571 80.2802 110.571C79.1257 110.571 78.188 111.507 78.188 112.656C78.188 113.806 79.1276 114.742 80.2802 114.742C80.7916 114.742 81.2067 115.156 81.2067 115.666C81.2067 116.176 80.7916 116.59 80.2802 116.59Z" fill="#0B545B"/>
<path d="M66.9639 108.749C66.4525 108.749 66.0374 108.335 66.0374 107.825C66.0374 106.675 65.0978 105.74 63.9452 105.74C62.7926 105.74 61.8531 106.676 61.8531 107.825C61.8531 108.335 61.438 108.749 60.9265 108.749C60.4151 108.749 60 108.335 60 107.825C60 105.657 61.7697 103.892 63.9452 103.892C66.1207 103.892 67.8904 105.657 67.8904 107.825C67.8904 108.335 67.4754 108.749 66.9639 108.749Z" fill="#0B545B"/>
<path d="M130.154 104.87C129.643 104.87 129.228 104.456 129.228 103.946C129.228 102.795 128.288 101.86 127.136 101.86C125.983 101.86 125.043 102.797 125.043 103.946C125.043 104.456 124.628 104.87 124.117 104.87C123.605 104.87 123.19 104.456 123.19 103.946C123.19 101.777 124.96 100.013 127.136 100.013C129.311 100.013 131.081 101.777 131.081 103.946C131.081 104.456 130.666 104.87 130.154 104.87Z" fill="#0B545B"/>
<path d="M104.752 93.6155L104.763 72.7547L98.8482 59.7342C98.6018 59.1948 98.1051 58.8826 97.5159 58.8678C97.5103 58.866 97.5029 58.8844 97.4973 58.8844H97.4658C96.8543 58.8844 96.3373 59.1966 96.0871 59.7527L90.1035 72.7565V108.21H96.5893V96.756C96.5893 96.2462 97.0044 95.8323 97.5159 95.8323C98.0273 95.8323 98.4424 96.2462 98.4424 96.756V108.21H104.743V106.562C104.743 106.562 104.743 106.553 104.743 106.547V93.7208C104.743 93.6857 104.748 93.6506 104.752 93.6155ZM98.4424 93.8002C98.4424 94.3101 98.0273 94.7239 97.5159 94.7239C97.0044 94.7239 96.5893 94.3101 96.5893 93.8002V91.9528C96.5893 91.4429 97.0044 91.0291 97.5159 91.0291C98.0273 91.0291 98.4424 91.4429 98.4424 91.9528V93.8002ZM97.5159 90.2181C97.4992 90.2199 97.4825 90.22 97.4658 90.22C94.373 90.22 91.8547 87.7093 91.8547 84.626C91.8547 81.5427 94.373 79.0321 97.4658 79.0321C97.4825 79.0321 97.4992 79.0321 97.5159 79.034C100.588 79.0598 103.077 81.5575 103.077 84.626C103.077 87.6946 100.588 90.1922 97.5159 90.2181Z" fill="white"/>
<path d="M97.4658 80.8794C95.3941 80.8794 93.7078 82.5605 93.7078 84.6259C93.7078 86.6913 95.3941 88.3724 97.4658 88.3724C99.5376 88.3724 101.224 86.6913 101.224 84.6259C101.224 82.5605 99.5376 80.8794 97.4658 80.8794Z" fill="white"/>
<path d="M100.481 110.057H93.6243V114.676H100.481V110.057Z" fill="white"/>
<path d="M88.2504 96.9055L82.7059 105.623H88.2504V96.9055Z" fill="white"/>
<path d="M112.139 105.623L106.596 96.9055V105.623H112.139Z" fill="white"/>
<path d="M97.4658 79.032C94.3711 79.032 91.8546 81.5407 91.8546 84.6259C91.8546 87.711 94.3711 90.2198 97.4658 90.2198C100.56 90.2198 103.077 87.711 103.077 84.6259C103.077 81.5407 100.56 79.032 97.4658 79.032ZM97.4658 88.3724C95.394 88.3724 93.7077 86.6913 93.7077 84.6259C93.7077 82.5605 95.394 80.8794 97.4658 80.8794C99.5375 80.8794 101.224 82.5605 101.224 84.6259C101.224 86.6913 99.5375 88.3724 97.4658 88.3724Z" fill="#0B545B"/>
<path d="M97.5158 91.0291C97.0043 91.0291 96.5892 91.4429 96.5892 91.9528V93.8001C96.5892 94.31 97.0043 94.7238 97.5158 94.7238C98.0272 94.7238 98.4423 94.31 98.4423 93.8001V91.9528C98.4423 91.4429 98.0272 91.0291 97.5158 91.0291Z" fill="#0B545B"/>
<path d="M114.605 106.054L106.603 93.4676L106.614 72.5569C106.614 72.4258 106.587 72.2946 106.531 72.1745L100.534 58.973C99.9915 57.7778 98.8389 57.0222 97.5288 57H97.4658C96.1241 57 94.9493 57.7556 94.3989 58.9693L88.3338 72.1708C88.2782 72.2909 88.2504 72.4221 88.2504 72.5551V93.4528L80.2413 106.052C80.0597 106.337 80.0486 106.697 80.2117 106.992C80.3748 107.288 80.6861 107.471 81.0233 107.471H88.2504V109.134C88.2504 109.643 88.6655 110.057 89.1769 110.057H91.7712V115.657C91.7712 116.167 92.2697 116.523 92.7812 116.523H101.402C101.913 116.523 102.334 116.168 102.334 115.657V110.057H105.669C106.181 110.057 106.596 109.643 106.596 109.134V107.471H113.823C114.16 107.471 114.472 107.288 114.635 106.992C114.798 106.697 114.787 106.337 114.605 106.052V106.054ZM82.7059 105.625L88.2485 96.9056V105.625H82.7059ZM100.479 114.678H93.6225V110.059H100.479V114.678ZM104.741 108.212H98.4405V96.7578C98.4405 96.2479 98.0254 95.8341 97.514 95.8341C97.0025 95.8341 96.5874 96.2479 96.5874 96.7578V108.212H90.1016V72.7564L96.0852 59.7341C96.3372 59.1799 96.8524 58.8474 97.4639 58.8474H97.4936C98.0903 58.8585 98.5962 59.1892 98.8445 59.736L104.76 72.7564L104.748 93.6191C104.745 93.6542 104.739 93.6893 104.739 93.7244V106.551C104.739 106.551 104.739 106.56 104.739 106.566V108.213L104.741 108.212ZM106.592 105.625V96.9056L112.135 105.625H106.592Z" fill="#0B545B"/>
</g>
<path d="M0.271606 96.169C0.271606 149.011 43.2175 192.005 96.0001 192.005V166.289C57.3783 166.289 25.9586 134.834 25.9586 96.169C25.9586 57.5039 57.3783 26.049 96.0001 26.049V0.333252C43.2175 0.333252 0.271606 43.3225 0.271606 96.169Z" fill="#00A6A6"/>
<path d="M272 96.1692C272 105.525 264.395 113.138 255.05 113.138C245.705 113.138 238.1 105.525 238.1 96.1692C238.1 86.8133 245.705 79.2002 255.05 79.2002C264.395 79.2002 272 86.8133 272 96.1692ZM241.32 96.1692C241.32 103.749 247.483 109.915 255.055 109.915C262.627 109.915 268.785 103.749 268.785 96.1692C268.785 88.5889 262.627 82.4188 255.055 82.4188C247.483 82.4188 241.32 88.5889 241.32 96.1692Z" fill="#00A6A6"/>
<path d="M258.504 104.52C263.11 102.61 265.298 97.3231 263.39 92.7118C261.482 88.1006 256.201 85.9108 251.595 87.8209C246.989 89.7309 244.802 95.0175 246.71 99.6287C248.618 104.24 253.898 106.43 258.504 104.52Z" fill="#00A6A6"/>
<path d="M239.71 94.5574H166.042V97.7759H239.71V94.5574Z" fill="#00A6A6"/>
<defs>
<linearGradient id="paint0_linear_20_2716" x1="41.2861" y1="139.206" x2="155.672" y2="49.5538" gradientUnits="userSpaceOnUse">
<stop stop-color="white"/>
<stop offset="1" stop-color="#D7D6D6"/>
</linearGradient>
<clipPath id="clip0_20_2716">
<rect width="75" height="76" fill="white" transform="translate(60 57)"/>
</clipPath>
</defs>
</svg>