<svg width="269" height="192" viewBox="0 0 269 192" fill="none" xmlns="http://www.w3.org/2000/svg">
<path d="M174.161 25.7252C212.839 26.367 243.673 58.2763 243.032 96.9929C242.391 135.714 210.518 166.583 171.844 165.942C133.166 165.3 102.332 133.39 102.973 94.6738C103.614 55.9526 135.487 25.0833 174.161 25.7252Z" fill="url(#paint0_linear_20_2713)"/>
<path d="M220.407 143.293C246.588 117.082 246.588 74.5857 220.407 48.375C194.226 22.1642 151.777 22.1642 125.596 48.375C99.4142 74.5857 99.4142 117.082 125.596 143.293C151.777 169.503 194.226 169.503 220.407 143.293Z" fill="#F2F2F2"/>
<path d="M211.097 99.8014L201.961 80.8532C201.722 80.3618 201.118 80.1699 200.64 80.4367L193.682 84.129L194.685 85.6358C194.076 86.2817 193.167 86.5765 192.347 86.7169C193.228 84.962 193.167 82.1214 192.699 80.9795C192.53 80.5677 192.23 80.2823 191.832 80.1465C190.792 79.8096 189.419 80.6239 187.826 81.5785C187.4 81.8359 186.978 82.0886 186.58 82.3039C186.29 82.463 185.568 82.6361 184.598 82.8187C184.575 82.7999 184.537 82.7719 184.514 82.7532C183.919 82.2805 183.202 82.0231 182.443 82.0184C179.946 81.9904 175.505 81.85 174.235 81.9436C173.186 82.0184 172.577 83.1369 172.15 84.363C168.332 84.7233 164.757 84.9901 162.874 85.0603C159.154 85.2053 156.442 84.1758 155.65 83.8342C155.687 83.3241 155.739 82.8233 155.762 82.2945L155.786 81.8312L149.55 79L149.33 79.7534C147.161 87.227 143.319 98.9216 141.637 100.508L141 101.112L148.51 105.838L148.889 105.37C148.988 105.249 149.948 104.023 151.124 101.659L155.078 104.182C155.078 104.182 151.808 105.74 153.603 107.921C155.397 110.101 160.391 107.841 160.391 107.841C160.391 107.841 160.077 109.479 161.403 110.569C162.729 111.66 165.385 111.192 165.385 111.192C165.385 111.192 165.151 112.905 166.243 113.607C167.334 114.309 169.129 113.841 169.129 113.841C169.129 113.841 168.974 115.633 170.3 116.489C171.626 117.346 173.031 115.553 173.031 115.553C173.031 115.553 177.013 117.505 179.117 117.425C181.225 117.346 181.38 115.478 181.38 115.478C181.38 115.478 184.734 116.101 186.219 115.478C187.7 114.856 187.47 112.362 187.47 112.362C187.47 112.362 190.047 113.218 191.373 112.362C192.699 111.505 192.544 108.932 192.544 108.932C192.544 108.932 195.355 109.4 196.835 108.464C198.316 107.528 197.618 103.629 197.618 103.629L201.286 101.449L202.575 105.061C202.757 105.571 203.357 105.787 203.821 105.506L210.614 101.407C211.167 101.074 211.373 100.377 211.092 99.8014H211.097ZM187.227 83.5066C187.644 83.282 188.084 83.0199 188.524 82.7532C189.096 82.4115 190.108 81.8125 190.797 81.5738C191.148 81.4522 191.523 81.6815 191.588 82.0465C191.86 83.5674 191.49 86.3846 190.553 86.7777L190.576 86.8339H190.52C189.916 86.8339 187.733 85.2568 185.98 83.909C186.538 83.7733 186.988 83.6376 187.227 83.5066V83.5066ZM148.187 104.023L143.113 100.831C145.493 97.2556 149.363 84.4612 150.421 80.8859L154.38 82.6829C153.631 95.1731 149.438 102.188 148.187 104.023ZM195.828 105.965C195.514 107.209 194.502 107.911 191.926 107.209C189.349 106.507 185.765 101.711 185.765 101.711C186.702 103.971 189.583 106.507 190.366 107.284C191.148 108.066 191.148 109.779 190.52 110.635C189.897 111.491 188.646 111.337 186.777 110.949C184.903 110.56 181.061 106.199 181.061 106.199C182.312 109.315 185.84 111.416 185.84 111.416C186.856 112.741 185.292 114.458 182.171 113.911C179.051 113.363 176.634 109.83 176.634 109.83C177.102 111.234 178.428 112.741 179.445 113.443C180.457 114.145 179.445 115.549 179.445 115.549C178.194 116.953 173.748 114.224 173.748 114.224C173.748 114.224 173.668 110.017 172.267 109.858C170.862 109.704 170.628 110.794 170.628 110.794C170.628 110.794 170.628 106.428 168.679 106.119C166.73 105.805 165.947 107.598 165.947 107.598C165.947 107.598 165.634 103.854 163.45 103.311C161.267 102.764 159.941 106.194 159.941 106.194C158.972 104.065 153.734 100.925 151.949 99.9043C153.378 96.5911 154.9 91.7476 155.547 85.2474C156.779 85.7248 159.431 86.5484 162.93 86.4127C164.458 86.3565 167.896 86.1085 171.729 85.7575C171.672 85.9634 171.616 86.1647 171.565 86.3518C171.232 87.5124 169.841 89.0895 169.058 89.9038C168.688 90.2922 168.543 90.8631 168.744 91.3592C169.096 92.2156 170.037 93.1609 172.811 92.9409C176.714 92.6274 177.257 88.1067 177.257 88.1067C179.834 89.8242 182.171 87.7932 182.171 87.7932C182.171 87.7932 182.326 89.0427 182.56 89.5855C182.795 90.1331 190.52 97.9248 192.628 99.8763C194.737 101.823 196.142 104.71 195.828 105.955V105.965ZM204.327 103.199C204.327 103.199 202.481 92.9175 196.756 84.8309L200.977 82.5238L209.321 100.293L204.331 103.199H204.327Z" fill="#5E8ECA"/>
<path d="M268.729 95.8357C268.729 148.677 225.787 191.671 173 191.671V165.956C211.622 165.956 243.042 134.501 243.042 95.8357C243.042 57.1707 211.622 25.7158 173 25.7158V0C225.783 0 268.729 42.9893 268.729 95.8357Z" fill="#4CB6CF"/>
<path d="M0 95.8356C0 105.192 7.60456 112.805 16.95 112.805C26.2954 112.805 33.8999 105.192 33.8999 95.8356C33.8999 86.4798 26.2954 78.8667 16.95 78.8667C7.60456 78.8667 0 86.4798 0 95.8356ZM30.6803 95.8356C30.6803 103.416 24.5171 109.581 16.9453 109.581C9.37349 109.581 3.21497 103.416 3.21497 95.8356C3.21497 88.2554 9.37349 82.09 16.9453 82.09C24.5171 82.09 30.6803 88.2554 30.6803 95.8356Z" fill="#4CB6CF"/>
<path d="M25.2921 99.2931C27.2 94.6818 25.0127 89.3953 20.4066 87.4853C15.8006 85.5752 10.5199 87.765 8.61203 92.3762C6.70413 96.9874 8.89145 102.274 13.4975 104.184C18.1036 106.094 23.3842 103.904 25.2921 99.2931Z" fill="#4CB6CF"/>
<path d="M105.958 94.2241H32.29V97.4427H105.958V94.2241Z" fill="#4CB6CF"/>
<defs>
<linearGradient id="paint0_linear_20_2713" x1="118.271" y1="138.866" x2="232.657" y2="49.2138" gradientUnits="userSpaceOnUse">
<stop stop-color="white"/>
<stop offset="1" stop-color="#D7D6D6"/>
</linearGradient>
</defs>
</svg>
