<svg width="272" height="193" viewBox="0 0 272 193" fill="none" xmlns="http://www.w3.org/2000/svg">
<path d="M97.1607 26.3917C135.839 27.0335 166.673 58.9428 166.032 97.6594C165.391 136.381 133.518 167.25 94.8443 166.608C56.1663 165.966 25.3316 134.057 25.9727 95.3403C26.6138 56.6191 58.4875 25.7498 97.1607 26.3917V26.3917Z" fill="url(#paint0_linear_20_2710)"/>
<path d="M143.409 143.961C169.591 117.75 169.591 75.2544 143.409 49.0437C117.228 22.8329 74.7791 22.8329 48.5977 49.0437C22.4163 75.2544 22.4163 117.75 48.5977 143.961C74.7792 170.172 117.228 170.172 143.409 143.961Z" fill="#F2F2F2"/>
<path d="M99.992 84.4423V85.1544C99.992 85.9602 99.4586 86.663 98.6864 86.8785C97.3574 87.2486 96.0985 87.7733 94.9192 88.4339C94.2219 88.8274 93.3468 88.7103 92.7759 88.1387L92.2799 87.6421C91.7323 87.094 90.8479 87.094 90.3003 87.6421L87.7405 90.2048C87.193 90.7529 87.193 91.6384 87.7405 92.1866L88.2366 92.6831C88.8028 93.25 88.9245 94.1262 88.5314 94.8289C87.8669 96.0048 87.3427 97.2697 86.9777 98.6003C86.7624 99.3733 86.0605 99.9074 85.2556 99.9074H84.5443C83.7721 99.9074 83.145 100.535 83.145 101.308V104.934C83.145 105.707 83.7721 106.335 84.5443 106.335H85.2556C86.0605 106.335 86.7624 106.869 86.9777 107.642C87.3427 108.973 87.8669 110.238 88.5314 111.414C88.9245 112.112 88.8075 112.988 88.2366 113.559L87.7405 114.056C87.193 114.604 87.193 115.49 87.7405 116.038L90.3003 118.6C90.8479 119.149 91.7323 119.149 92.2799 118.6L92.7759 118.104C93.3422 117.537 94.2173 117.415 94.9192 117.809C96.0938 118.474 97.3574 118.999 98.6864 119.364C99.4586 119.58 99.992 120.282 99.992 121.088V121.8C99.992 122.573 100.619 123.201 101.391 123.201H105.013C105.786 123.201 106.413 122.573 106.413 121.8V121.088C106.413 120.282 106.946 119.58 107.718 119.364C109.047 118.994 110.311 118.474 111.485 117.809C112.187 117.415 113.058 117.532 113.629 118.104L114.125 118.6C114.672 119.149 115.557 119.149 116.104 118.6L118.664 116.038C119.212 115.49 119.212 114.604 118.664 114.056L118.168 113.559C117.602 112.993 117.48 112.116 117.873 111.414C118.538 110.238 119.062 108.973 119.427 107.642C119.642 106.869 120.344 106.335 121.149 106.335H121.86C122.633 106.335 123.26 105.707 123.26 104.934V101.308C123.26 100.535 122.633 99.9074 121.86 99.9074H121.149C120.349 99.9074 119.642 99.3733 119.427 98.6003C119.062 97.2697 118.533 96.0048 117.873 94.8289C117.48 94.1308 117.597 93.2547 118.168 92.6831L118.664 92.1866C119.212 91.6384 119.212 90.7529 118.664 90.2048L116.104 87.6421C115.557 87.094 114.672 87.094 114.125 87.6421L113.629 88.1387C113.063 88.7056 112.187 88.8274 111.485 88.4339C110.311 87.7686 109.047 87.2439 107.718 86.8785C106.946 86.663 106.413 85.9602 106.413 85.1544V84.4423C106.413 83.6693 105.786 83.0415 105.013 83.0415H101.391C100.619 83.0415 99.992 83.6693 99.992 84.4423ZM115.351 103.121C115.351 109.835 109.913 115.283 103.202 115.283C96.4916 115.283 91.0538 109.84 91.0538 103.121C91.0538 96.403 96.4916 90.9591 103.202 90.9591C109.913 90.9591 115.351 96.403 115.351 103.121Z" fill="#4CB6CF"/>
<path d="M84.928 67.6559V67.9885C84.928 68.3633 84.68 68.6959 84.315 68.799C83.6926 68.9724 83.0983 69.216 82.5507 69.5299C82.2231 69.7173 81.8113 69.6611 81.5446 69.394L81.3106 69.1598C81.0532 68.9021 80.6367 68.9021 80.3793 69.1598L79.1766 70.3638C78.9193 70.6214 78.9193 71.0384 79.1766 71.2914L79.4106 71.5256C79.6774 71.7927 79.7335 72.205 79.5463 72.5329C79.2375 73.0857 78.9895 73.6761 78.8163 74.3038C78.718 74.6646 78.3858 74.9176 78.0067 74.9176H77.6744C77.3094 74.9176 77.0193 75.2127 77.0193 75.5735V77.2741C77.0193 77.6395 77.3141 77.93 77.6744 77.93H78.0067C78.3811 77.93 78.7133 78.1783 78.8163 78.5438C78.9895 79.1669 79.2328 79.7618 79.5463 80.3099C79.7335 80.6379 79.6727 81.0502 79.4106 81.3172L79.1766 81.5515C78.9193 81.8092 78.9193 82.2261 79.1766 82.4791L80.3793 83.6832C80.6367 83.9408 81.0532 83.9408 81.3106 83.6832L81.5446 83.4489C81.8113 83.1819 82.2231 83.1256 82.5507 83.313C83.1029 83.6269 83.6926 83.8706 84.315 84.0439C84.68 84.1423 84.928 84.4749 84.928 84.8544V85.187C84.928 85.5478 85.2229 85.8429 85.5832 85.8429H87.2819C87.6469 85.8429 87.9371 85.5478 87.9371 85.187V84.8544C87.9371 84.4796 88.1851 84.147 88.5501 84.0439C89.1725 83.8706 89.7669 83.6269 90.3144 83.313C90.642 83.1303 91.0538 83.1866 91.3205 83.4489L91.5545 83.6832C91.8119 83.9408 92.2284 83.9408 92.4811 83.6832L93.6838 82.4791C93.9412 82.2214 93.9412 81.8045 93.6838 81.5515L93.4498 81.3172C93.1831 81.0502 93.1269 80.6379 93.3141 80.3099C93.623 79.7571 93.871 79.1669 94.0441 78.5438C94.1471 78.1783 94.4747 77.93 94.8537 77.93H95.186C95.551 77.93 95.8412 77.6348 95.8412 77.2741V75.5735C95.8412 75.208 95.5463 74.9176 95.186 74.9176H94.8537C94.4794 74.9176 94.1471 74.6693 94.0441 74.3038C93.871 73.6807 93.6276 73.0857 93.3141 72.5329C93.1269 72.205 93.1878 71.7927 93.4498 71.5256L93.6838 71.2914C93.9412 71.0337 93.9412 70.6168 93.6838 70.3638L92.4811 69.1598C92.2237 68.9021 91.8072 68.9021 91.5545 69.1598L91.3205 69.394C91.0538 69.6611 90.6467 69.7173 90.3144 69.5299C89.7622 69.2207 89.1725 68.9724 88.5501 68.799C88.1851 68.6959 87.9371 68.368 87.9371 67.9885V67.6559C87.9371 67.2952 87.6423 67 87.2819 67H85.5832C85.2182 67 84.928 67.2952 84.928 67.6559ZM89.9353 76.4168C89.9353 78.3517 88.3676 79.9258 86.4302 79.9258C84.4928 79.9258 82.9251 78.3563 82.9251 76.4168C82.9251 74.4772 84.4928 72.9077 86.4302 72.9077C88.3676 72.9077 89.9353 74.4772 89.9353 76.4168Z" fill="#4CB6CF"/>
<path d="M75.0678 93.8355V93.6435C75.0678 93.4233 75.2129 93.2312 75.4234 93.175C75.7838 93.0766 76.1301 92.9313 76.4483 92.7533C76.6402 92.6456 76.8742 92.6784 77.0286 92.833L77.1643 92.9688C77.3141 93.1187 77.5527 93.1187 77.7025 92.9688L78.3998 92.2707C78.5495 92.1208 78.5495 91.8819 78.3998 91.732L78.264 91.5961C78.1096 91.4415 78.0769 91.2026 78.1845 91.0152C78.367 90.6966 78.5074 90.3499 78.6057 89.9892C78.6618 89.7783 78.8537 89.6331 79.0736 89.6331H79.2655C79.4761 89.6331 79.6446 89.4645 79.6446 89.2537V88.2698C79.6446 88.059 79.4761 87.8903 79.2655 87.8903H79.0736C78.8537 87.8903 78.6618 87.7451 78.6057 87.5342C78.5074 87.1735 78.3623 86.8268 78.1845 86.5083C78.0769 86.3162 78.1096 86.0773 78.264 85.9226L78.3998 85.7868C78.5495 85.6368 78.5495 85.3979 78.3998 85.248L77.7025 84.5499C77.5527 84.4 77.3141 84.4 77.1643 84.5499L77.0286 84.6858C76.8742 84.8404 76.6355 84.8732 76.4483 84.7654C76.1301 84.5827 75.7838 84.4422 75.4234 84.3438C75.2129 84.2876 75.0678 84.0955 75.0678 83.8753V83.6832C75.0678 83.4724 74.8993 83.3037 74.6887 83.3037H73.7013C73.4907 83.3037 73.3223 83.4724 73.3223 83.6832V83.8753C73.3223 84.0955 73.1772 84.2876 72.9666 84.3438C72.6063 84.4422 72.26 84.5874 71.9417 84.7654C71.7499 84.8732 71.5159 84.8404 71.3614 84.6858L71.2257 84.5499C71.076 84.4 70.8373 84.4 70.6876 84.5499L69.9903 85.248C69.8405 85.3979 69.8405 85.6368 69.9903 85.7868L70.126 85.9226C70.2804 86.0773 70.3132 86.3162 70.2056 86.5083C70.0277 86.8268 69.8827 87.1735 69.7844 87.5342C69.7282 87.7451 69.5364 87.8903 69.3164 87.8903H69.1245C68.914 87.8903 68.7455 88.0637 68.7455 88.2698V89.2537C68.7455 89.4645 68.914 89.6331 69.1245 89.6331H69.3164C69.5364 89.6331 69.7282 89.7783 69.7844 89.9892C69.8827 90.3499 70.0277 90.6966 70.2056 91.0152C70.3132 91.2073 70.2804 91.4462 70.126 91.5961L69.9903 91.732C69.8405 91.8819 69.8405 92.1208 69.9903 92.2707L70.6876 92.9688C70.8373 93.1187 71.076 93.1187 71.2257 92.9688L71.3614 92.833C71.5159 92.6784 71.7545 92.6456 71.9417 92.7533C72.26 92.936 72.6063 93.0766 72.9666 93.175C73.1772 93.2312 73.3223 93.428 73.3223 93.6435V93.8355C73.3223 94.0463 73.4907 94.215 73.7013 94.215H74.6887C74.8993 94.215 75.0678 94.0463 75.0678 93.8355ZM72.1617 88.757C72.1617 87.6326 73.0695 86.7238 74.1927 86.7238C75.3158 86.7238 76.2237 87.6326 76.2237 88.757C76.2237 89.8814 75.3158 90.7903 74.1927 90.7903C73.0695 90.7903 72.1617 89.8814 72.1617 88.757Z" fill="#4CB6CF"/>
<path d="M0.271729 96.5022C0.271729 149.344 43.2176 192.338 96.0002 192.338V166.622C57.3784 166.622 25.9587 135.167 25.9587 96.5022C25.9587 57.8372 57.3784 26.3823 96.0002 26.3823V0.666504C43.2176 0.666504 0.271729 43.6558 0.271729 96.5022V96.5022Z" fill="#5DBEA9"/>
<path d="M272 96.5021C272 105.858 264.395 113.471 255.05 113.471C245.705 113.471 238.1 105.858 238.1 96.5021C238.1 87.1463 245.705 79.5332 255.05 79.5332C264.395 79.5332 272 87.1463 272 96.5021ZM241.32 96.5021C241.32 104.082 247.483 110.248 255.055 110.248C262.627 110.248 268.785 104.082 268.785 96.5021C268.785 88.9219 262.627 82.7565 255.055 82.7565C247.483 82.7565 241.32 88.9219 241.32 96.5021Z" fill="#5DBEA9"/>
<path d="M261.434 102.896C264.959 99.3665 264.959 93.6443 261.434 90.115C257.908 86.5858 252.193 86.5858 248.667 90.115C245.142 93.6443 245.142 99.3664 248.667 102.896C252.193 106.425 257.908 106.425 261.434 102.896Z" fill="#5DBEA9"/>
<path d="M239.71 94.8906H166.042V98.1092H239.71V94.8906Z" fill="#5DBEA9"/>
<defs>
<linearGradient id="paint0_linear_20_2710" x1="41.2554" y1="139.526" x2="155.641" y2="49.8736" gradientUnits="userSpaceOnUse">
<stop stop-color="white"/>
<stop offset="1" stop-color="#D7D6D6"/>
</linearGradient>
</defs>
</svg>
