<svg width="144" height="98" viewBox="0 0 144 98" fill="none" xmlns="http://www.w3.org/2000/svg">
<g clip-path="url(#clip0_24_5)">
<path d="M3.487 97.9999C2.83867 97.9999 2.19034 97.8241 1.59457 97.4374C-0.0175005 96.3827 -0.490608 94.2205 0.560742 92.6033L48.4848 18.0354C49.1156 17.0686 50.1845 16.4533 51.341 16.4358C52.4624 16.383 53.5839 16.9631 54.2672 17.9124L91.7304 70.6478L132.47 1.72258C133.451 0.0526239 135.589 -0.492309 137.254 0.492086C138.919 1.47648 139.462 3.62105 138.48 5.29101L95.0071 78.8393C94.4113 79.8589 93.3249 80.5093 92.1509 80.5445C90.9419 80.6499 89.8555 80.0347 89.1721 79.0854L51.5513 26.1567L6.41326 96.4002C5.74741 97.4374 4.62597 97.9999 3.487 97.9999Z" fill="url(#paint0_linear_24_5)"/>
<path d="M140.495 33.9615C138.866 33.9615 137.412 32.8013 137.079 31.1313L132.61 8.33207L108.955 16.7522C107.133 17.385 105.153 16.4357 104.504 14.6252C103.856 12.797 104.802 10.8106 106.624 10.1602L134.1 0.369019C135.064 0.0174499 136.115 0.122921 136.991 0.632697C137.867 1.14247 138.498 2.00382 138.691 3.00579L143.93 29.7954C144.298 31.6939 143.071 33.522 141.179 33.9087C140.951 33.9615 140.723 33.9791 140.495 33.9791V33.9615Z" fill="url(#paint1_linear_24_5)"/>
</g>
<defs>
<linearGradient id="paint0_linear_24_5" x1="69.4843" y1="0.00244141" x2="69.4843" y2="97.9999" gradientUnits="userSpaceOnUse">
<stop stop-color="#5DBEAE"/>
<stop offset="1" stop-color="#5ABCE9"/>
</linearGradient>
<linearGradient id="paint1_linear_24_5" x1="124.148" y1="0.163086" x2="124.148" y2="33.9791" gradientUnits="userSpaceOnUse">
<stop stop-color="#5CBDC8"/>
<stop offset="1" stop-color="#5BBDDE"/>
</linearGradient>
<clipPath id="clip0_24_5">
<rect width="144" height="98" fill="white"/>
</clipPath>
</defs>
</svg>
