<svg width="80" height="112" viewBox="0 0 83 112" fill="none" xmlns="http://www.w3.org/2000/svg">
<g clip-path="url(#clip0_24_2)">
<path d="M23.8608 112C17.7435 112 11.6436 109.668 6.98618 105.022C2.48513 100.515 0 94.5109 0 88.1243C0 81.7377 2.48513 75.7514 6.98618 71.2269L28.2228 49.9615C32.7238 45.4543 38.7194 42.9658 45.0974 42.9658C51.4753 42.9658 57.4535 45.4543 61.9719 49.9615C66.473 54.4686 68.9581 60.4723 68.9581 66.8589C68.9581 73.2455 66.473 79.2318 61.9719 83.7564L40.7353 105.022C36.0779 109.686 29.978 112 23.8608 112ZM11.8869 100.114C18.4908 106.727 29.2481 106.727 35.852 100.114L57.0886 78.849C60.2862 75.647 62.0588 71.3835 62.0588 66.8589C62.0588 62.3344 60.3036 58.0709 57.0886 54.8689C53.8909 51.6669 49.6332 49.8919 45.1147 49.8919C40.5963 49.8919 36.3386 51.6495 33.1409 54.8689L11.9043 76.1342C8.70666 79.3362 6.93405 83.5998 6.93405 88.1243C6.93405 92.6489 8.68928 96.9124 11.9043 100.114H11.8869Z" fill="url(#paint0_linear_24_2)"/>
<path d="M37.5422 71.7881C31.4249 71.7881 25.325 69.4562 20.6676 64.8098C16.1665 60.3027 13.6814 54.299 13.6814 47.9124C13.6814 41.5258 16.1665 35.5395 20.6676 31.0149L41.9042 9.74955C46.4052 5.24241 52.4008 2.75391 58.7788 2.75391C65.1567 2.75391 71.1349 5.24241 75.6533 9.74955C80.1544 14.2567 82.6395 20.2604 82.6395 26.647C82.6395 33.0336 80.1544 39.0199 75.6533 43.5445L54.4167 64.8098C49.7593 69.4736 43.6594 71.7881 37.5422 71.7881ZM25.5683 59.9024C32.1722 66.5152 42.9295 66.5152 49.5334 59.9024L70.77 38.6371C73.9676 35.4351 75.7402 31.1716 75.7402 26.647C75.7402 22.1225 73.985 17.8589 70.77 14.657C67.5723 11.455 63.3146 9.67995 58.7961 9.67995C54.2777 9.67995 50.02 11.4376 46.8223 14.657L25.5857 35.9223C22.3881 39.1243 20.6154 43.3878 20.6154 47.9124C20.6154 52.4369 22.3707 56.7005 25.5857 59.9024H25.5683Z" fill="url(#paint1_linear_24_2)"/>
</g>
<defs>
<linearGradient id="paint0_linear_24_2" x1="34.4791" y1="42.9658" x2="34.4791" y2="112" gradientUnits="userSpaceOnUse">
<stop stop-color="#5DBEB5"/>
<stop offset="1" stop-color="#5ABCE9"/>
</linearGradient>
<linearGradient id="paint1_linear_24_2" x1="48.1605" y1="2.75391" x2="48.1605" y2="71.7881" gradientUnits="userSpaceOnUse">
<stop stop-color="#5DBEB5"/>
<stop offset="1" stop-color="#5ABCE9"/>
</linearGradient>
<clipPath id="clip0_24_2">
<rect width="83" height="112" fill="white"/>
</clipPath>
</defs>
</svg>
