<svg width="132" height="108" viewBox="0 0 132 108" fill="none" xmlns="http://www.w3.org/2000/svg">
<g clip-path="url(#clip0_27_1213)">
<path d="M5.67942 72.1783C4.51275 70.7425 3.30135 69.4489 2.31698 68.0014C-0.692474 63.5814 -0.743846 59.0439 2.138 54.5411C2.9202 53.3203 3.87142 52.1905 4.85911 51.1235C5.38278 50.5595 5.33472 50.2303 4.90219 49.696C4.03714 48.6257 3.16049 47.5537 2.41807 46.3991C0.623334 43.6101 -0.324578 40.5614 0.102977 37.2216C0.59019 33.4334 2.69151 30.6329 5.89651 28.714C8.09062 27.4005 10.4322 26.3336 12.7258 25.1922C25.7314 18.7209 38.742 12.2629 51.7492 5.7949C54.6858 4.33423 57.619 2.86529 60.5423 1.37651C63.2534 -0.0064117 66.0557 -0.290936 69.0536 0.27315C87.1236 3.66924 105.205 7.00082 123.28 10.3721C125.309 10.7509 127.317 11.2422 129.332 11.6888C129.516 11.7302 129.687 11.8261 130.06 11.9734C129.266 12.4812 128.611 12.951 127.91 13.3397C119.739 17.8706 111.559 22.3883 103.384 26.9125C94.798 31.6651 86.1972 36.3862 77.6428 41.195C75.215 42.5597 72.7326 42.874 70.0695 42.3298C55.811 39.4184 41.5559 36.4954 27.2958 33.6005C22.0292 32.5319 16.7511 31.5178 11.4763 30.4972C8.84299 29.9877 6.92894 31.2251 5.38444 33.1671C2.63682 36.6227 2.81414 42.3149 5.70262 45.668C6.60247 46.7134 7.69787 47.3437 9.04848 47.6414C17.2565 49.4544 25.458 51.2956 33.6627 53.1284C36.1916 53.6925 38.7171 54.2781 41.2526 54.8041C41.9934 54.958 42.3613 55.221 42.2552 56.0448C42.1724 56.6899 42.2386 57.3549 42.2386 58.1457C40.7422 57.8661 39.3469 57.613 37.9532 57.345C29.3209 55.6809 20.6919 53.9969 12.0563 52.3526C8.25468 51.6281 4.66024 54.0449 3.70902 58.0332C2.91025 61.3829 3.60296 64.4829 5.74405 67.214C6.60413 68.3124 7.73267 69.0055 9.11477 69.3066C29.3093 73.7184 49.5104 78.1004 69.685 82.5982C72.5768 83.2433 75.0294 82.8447 77.5832 81.4171C94.2263 72.1006 110.916 62.8635 127.589 53.5999C128.142 53.2922 128.679 52.9531 129.238 52.652C130.376 52.0383 131.137 52.212 131.7 53.193C132.269 54.1838 132.05 54.9315 130.91 55.5734C128.315 57.0324 125.7 58.455 123.098 59.9008C108.307 68.1271 93.512 76.3453 78.7332 84.5915C75.9392 86.1498 73.0292 86.6923 69.8855 86.0323C52.0276 82.2905 34.1681 78.5536 16.3036 74.8366C14.6382 74.4909 12.9429 74.1137 11.2542 74.0807C6.46161 73.988 2.90031 77.935 3.40741 82.6892C3.53501 83.8785 3.84657 85.0729 4.24263 86.206C5.27838 89.172 7.47581 90.8328 10.5051 91.4796C19.7224 93.4498 28.943 95.415 38.1586 97.3967C49.0712 99.744 59.9822 102.096 70.8881 104.472C72.7922 104.887 74.5687 104.624 76.2441 103.698C92.7166 94.5846 109.184 85.46 125.653 76.3386C126.787 75.7117 127.919 75.0798 129.057 74.4628C130.394 73.7399 131.145 73.8755 131.722 74.9226C132.292 75.9582 132 76.6513 130.64 77.4073C126.593 79.6586 122.539 81.8984 118.493 84.1498C105.194 91.5425 91.888 98.9252 78.604 106.344C75.7437 107.942 72.7872 108.381 69.5922 107.673C49.5187 103.22 29.4385 98.7896 9.36003 94.353C9.27883 94.3348 9.19928 94.305 9.11808 94.2967C5.2154 93.9394 2.97157 91.4813 1.45193 88.1778C-0.263262 84.4476 -0.624529 80.6644 1.28124 76.873C2.15292 75.1393 3.46541 73.7779 5.0298 72.6464C5.2502 72.4876 5.47061 72.3305 5.68107 72.18L5.67942 72.1783ZM58.03 17.8673C58.0366 17.9467 58.0432 18.0261 58.0499 18.1072C58.4725 18.2081 58.8917 18.3255 59.316 18.4099C67.1694 19.9682 75.0195 21.538 82.8812 23.05C83.4993 23.1691 84.2865 23.0599 84.8367 22.7638C88.5753 20.7605 92.2725 18.6795 95.9812 16.6217C96.2066 16.4976 96.4171 16.3471 96.8297 16.0824C96.1155 15.8955 95.625 15.7367 95.1228 15.6408C87.8776 14.276 80.6291 12.9229 73.3838 11.5631C72.242 11.3481 71.1499 11.4109 70.0844 11.9353C66.8462 13.525 63.5932 15.0866 60.3501 16.668C59.5662 17.0501 58.8006 17.467 58.0267 17.8673H58.03Z" fill="url(#paint0_linear_27_1213)"/>
<path d="M60.2338 58.9128C62.186 59.3131 64.1498 59.7118 66.1136 60.1171C67.6531 60.4363 69.1992 60.7242 70.7238 61.0964C72.8202 61.6092 74.7541 61.2684 76.6185 60.2246C81.5005 57.4919 86.3926 54.7789 91.2829 52.0611C103.521 45.2606 115.76 38.4618 128 31.663C128.553 31.3553 129.092 31.008 129.672 30.7648C130.58 30.3843 131.253 30.6738 131.737 31.5621C132.191 32.3958 132.078 33.1237 131.254 33.6382C130.064 34.3825 128.817 35.0343 127.589 35.7175C111.161 44.8504 94.7299 53.98 78.3038 63.1162C75.7087 64.5603 72.9611 64.9755 70.0693 64.3701C67.426 63.8175 64.7944 63.2121 62.1595 62.6265C59.8328 62.1104 59.4086 61.3147 60.2338 58.9095V58.9128Z" fill="url(#paint1_linear_27_1213)"/>
</g>
<defs>
<linearGradient id="paint0_linear_27_1213" x1="66.0016" y1="0.000488281" x2="66.0016" y2="108" gradientUnits="userSpaceOnUse">
<stop stop-color="#5DBEAC"/>
<stop offset="1" stop-color="#59BCEA"/>
</linearGradient>
<linearGradient id="paint1_linear_27_1213" x1="95.9234" y1="30.6011" x2="95.9234" y2="64.6392" gradientUnits="userSpaceOnUse">
<stop stop-color="#5EBFAD"/>
<stop offset="1" stop-color="#5ABCE7"/>
</linearGradient>
<clipPath id="clip0_27_1213">
<rect width="132" height="108" fill="white"/>
</clipPath>
</defs>
</svg>
