<svg width="514" height="337" viewBox="0 0 514 337" fill="none" xmlns="http://www.w3.org/2000/svg">
<path d="M429.171 252.381C475.594 205.919 475.594 130.589 429.171 84.127C382.747 37.6649 307.48 37.6649 261.057 84.127C214.634 130.589 214.634 205.919 261.057 252.381C307.48 298.843 382.747 298.843 429.171 252.381Z" fill="#F2F2F2"/>
<path d="M345.287 25.25C344.352 25.25 343.436 25.25 342.521 25.2852C341.978 25.2852 341.44 25.3054 340.896 25.3205C340.212 25.3356 339.538 25.3859 338.854 25.4161C315.854 26.448 295.087 32.544 275.119 43.6485C273.922 44.3381 272.746 45.0127 271.569 45.7224C271.458 45.8181 271.327 45.8886 271.196 45.949C253.578 56.9679 238.353 70.9669 226.111 89.5114C225.548 90.3672 224.954 91.2028 224.406 92.0686C224.124 92.4964 223.863 92.9294 223.566 93.3572C217.682 102.373 210.394 110.19 202.075 116.568C186.397 128.574 116.818 135.44 96.4482 135.44C80.7307 135.44 25.3398 131.398 12.0164 124.033C8.16873 121.899 4.46696 119.488 0.956299 116.815C6.2424 131.513 9.32554 147.264 9.81341 163.664H202.603C202.552 165.189 202.487 166.715 202.487 168.255C202.487 247.23 266.453 311.25 345.363 311.25C424.272 311.25 488.238 247.23 488.238 168.255C488.238 89.2799 424.005 25.25 345.287 25.25Z" fill="#4CB6CF"/>
<path d="M469.292 170.314C468.155 238.95 411.642 293.667 343.064 292.534C274.485 291.397 219.814 234.837 220.945 166.201C222.082 97.5655 278.595 42.8432 347.173 43.9808C415.752 45.1184 470.423 101.678 469.292 170.314V170.314Z" fill="url(#paint0_linear_18_2653)"/>
<path d="M386.859 149.596C387.582 149.596 388.293 149.314 388.812 148.784L418.193 119.428C418.915 118.707 419.175 117.647 418.881 116.666C418.577 115.684 417.764 114.963 416.759 114.771L407.041 112.955L405.224 103.245C405.032 102.242 404.309 101.418 403.327 101.125C402.345 100.821 401.284 101.08 400.562 101.813L371.181 131.168C370.538 131.811 370.256 132.725 370.425 133.627L370.594 134.54C370.425 134.337 370.256 134.134 370.03 133.988C361.327 128.36 351.225 125.383 340.818 125.383C311.132 125.383 287 149.494 287 179.143C287 194.063 293.118 207.573 302.972 217.317L291.673 230.444C290.68 231.594 290.815 233.342 291.966 234.335C292.486 234.786 293.129 235 293.761 235C294.54 235 295.307 234.673 295.849 234.041L307.08 220.982C316.313 228.425 328.03 232.902 340.784 232.902C353.539 232.902 365.255 228.425 374.488 220.982L385.719 234.041C386.261 234.673 387.04 235 387.807 235C388.439 235 389.083 234.786 389.602 234.335C390.753 233.342 390.889 231.605 389.896 230.444L378.597 217.317C388.451 207.573 394.569 194.063 394.569 179.143C394.569 168.553 391.487 158.302 385.651 149.506C385.629 149.472 385.595 149.46 385.572 149.427L386.317 149.562C386.487 149.596 386.656 149.607 386.825 149.607L386.859 149.596ZM400.754 109.414L401.691 114.41L377.039 139.04L376.102 134.044L400.754 109.414ZM381.091 152.539C386.317 160.433 389.083 169.625 389.083 179.143C389.083 205.746 367.422 227.388 340.796 227.388C314.169 227.388 292.52 205.735 292.52 179.143C292.52 152.55 314.18 130.898 340.807 130.898C350.153 130.898 359.216 133.57 367.016 138.623C368.292 139.446 370.007 139.085 370.831 137.811C370.955 137.619 371 137.405 371.08 137.191L372.31 143.765L362.806 153.261C362.648 152.742 362.377 152.257 361.914 151.896C355.819 147.182 348.516 144.69 340.796 144.69C321.776 144.69 306.301 160.151 306.301 179.154C306.301 198.157 321.776 213.618 340.796 213.618C359.815 213.618 375.29 198.157 375.29 179.154C375.29 171.181 372.502 163.411 367.434 157.264C367.31 157.107 367.129 157.016 366.982 156.892L376.204 147.679L381.87 148.739C380.606 149.573 380.256 151.287 381.091 152.562V152.539ZM363.178 160.749C367.434 165.914 369.77 172.444 369.77 179.143C369.77 195.112 356.767 208.092 340.796 208.092C324.824 208.092 311.821 195.1 311.821 179.143C311.821 163.185 324.824 150.193 340.796 150.193C347.286 150.193 353.415 152.291 358.528 156.249C358.788 156.452 359.081 156.576 359.386 156.667L347.749 168.294C347.545 167.471 347.026 166.749 346.191 166.388C344.486 165.666 342.669 165.294 340.796 165.294C333.165 165.294 326.946 171.497 326.946 179.131C326.946 186.766 333.154 192.969 340.796 192.969C348.437 192.969 354.645 186.766 354.645 179.131C354.645 177.034 354.182 175.015 353.279 173.132C352.997 172.545 352.512 172.139 351.959 171.88L363.156 160.693C363.156 160.693 363.167 160.727 363.178 160.738V160.749ZM349.126 179.143C349.126 183.733 345.389 187.465 340.796 187.465C336.202 187.465 332.465 183.733 332.465 179.143C332.465 174.553 336.202 170.82 340.796 170.82C341.924 170.82 343.008 171.034 344.035 171.474C344.182 171.53 344.328 171.53 344.475 171.564L338.843 177.192C337.771 178.274 337.771 180.011 338.843 181.094C339.385 181.635 340.084 181.906 340.796 181.906C341.507 181.906 342.206 181.635 342.748 181.094L348.313 175.534C348.855 176.662 349.137 177.88 349.137 179.143H349.126ZM380.933 142.942L405.585 118.312L410.585 119.248L385.934 143.878L380.933 142.942Z" fill="url(#paint1_linear_18_2653)"/>
<defs>
<linearGradient id="paint0_linear_18_2653" x1="268.936" y1="71.2378" x2="428.113" y2="273.929" gradientUnits="userSpaceOnUse">
<stop stop-color="white"/>
<stop offset="1" stop-color="#D7D6D6"/>
</linearGradient>
<linearGradient id="paint1_linear_18_2653" x1="353" y1="101" x2="353" y2="235" gradientUnits="userSpaceOnUse">
<stop stop-color="#5DBEAE"/>
<stop offset="1" stop-color="#5ABCE9"/>
</linearGradient>
</defs>
</svg>
