<svg width="689" height="338" viewBox="0 0 689 338" fill="none" xmlns="http://www.w3.org/2000/svg">
<path d="M679.931 173.831H487.765C490.315 90.6273 423.532 27.9565 349.401 26.3256C348.858 26.3055 348.315 26.2904 347.777 26.2904C346.861 26.2551 345.946 26.2551 345.01 26.2551C295.63 26.2551 249.554 51.6406 223.284 94.3674C217.399 103.383 210.112 111.2 201.793 117.578C186.115 129.584 76.2993 136.45 55.9294 136.45C40.2119 136.45 25.0578 132.408 11.7344 125.043C7.88675 122.909 4.18497 120.498 0.674316 117.825C5.96042 132.524 9.04355 148.274 9.53142 164.674H202.21C199.66 245.703 264.552 312.17 344.864 312.25C344.895 312.25 344.925 312.25 344.96 312.25C344.97 312.25 344.975 312.25 344.985 312.25C344.995 312.25 345 312.25 345.01 312.25C345.946 312.25 346.861 312.25 347.777 312.215C348.209 312.215 348.642 312.2 349.069 312.185C399.581 310.755 443.887 282.888 468.115 242.044C473.728 233.934 480.498 226.837 488.138 221.003C503.815 208.942 613.168 202.075 633.538 202.075C649.366 202.075 664.556 206.208 677.899 213.709C681.711 215.858 685.373 218.274 688.869 220.947C683.432 205.891 680.404 189.994 679.936 173.836L679.931 173.831Z" fill="#5DBEA9"/>
<path d="M469.181 171.313C468.044 239.949 411.532 294.667 342.953 293.534C274.375 292.396 219.703 235.837 220.835 167.201C221.971 98.5651 278.484 43.8427 347.062 44.9803C415.641 46.1179 470.313 102.678 469.181 171.313V171.313Z" fill="url(#paint0_linear_0_1)"/>
<path d="M429.171 253.127C475.594 206.665 475.594 131.335 429.171 84.8729C382.747 38.4108 307.48 38.4108 261.057 84.8729C214.634 131.335 214.634 206.665 261.057 253.127C307.48 299.589 382.747 299.589 429.171 253.127Z" fill="#F2F2F2"/>
<g clip-path="url(#clip0_0_1)">
<rect width="119" height="119" transform="translate(286 110)" fill="url(#paint1_radial_0_1)"/>
<path d="M355.051 229H335.963C334.401 229 333.137 227.736 333.137 226.174V212.398C329.942 211.475 326.86 210.196 323.934 208.577L314.177 218.334C313.069 219.442 311.28 219.442 310.186 218.334L296.68 204.842C296.155 204.317 295.856 203.592 295.856 202.84C295.856 202.087 296.155 201.377 296.68 200.837L306.437 191.08C304.818 188.155 303.54 185.073 302.617 181.877H288.826C287.264 181.877 286 180.613 286 179.051V159.963C286 158.401 287.264 157.137 288.826 157.137H302.602C303.525 153.942 304.804 150.86 306.423 147.934L296.666 138.177C296.14 137.652 295.842 136.927 295.842 136.175C295.842 135.422 296.14 134.712 296.666 134.172L310.186 120.68C311.294 119.572 313.084 119.572 314.177 120.68L323.934 130.437C326.86 128.818 329.942 127.54 333.137 126.602V112.826C333.137 111.264 334.401 110 335.963 110H355.051C356.613 110 357.877 111.264 357.877 112.826V126.602C361.073 127.525 364.155 128.804 367.08 130.437L376.837 120.68C377.945 119.572 379.734 119.572 380.828 120.68L394.334 134.172C394.86 134.698 395.158 135.422 395.158 136.175C395.158 136.927 394.86 137.637 394.334 138.177L384.577 147.934C386.196 150.86 387.475 153.942 388.398 157.137H402.174C403.736 157.137 405 158.401 405 159.963V179.051C405 180.613 403.736 181.877 402.174 181.877H388.398C387.475 185.073 386.196 188.155 384.577 191.08L394.334 200.837C395.442 201.945 395.442 203.734 394.334 204.828L380.828 218.32C379.72 219.428 377.931 219.428 376.837 218.32L367.08 208.563C364.155 210.182 361.073 211.46 357.877 212.383V226.16C357.877 227.722 356.613 228.986 355.051 228.986V229ZM338.789 223.348H352.225V210.211C352.225 208.904 353.134 207.754 354.412 207.455C358.516 206.49 362.436 204.856 366.043 202.612C367.165 201.916 368.614 202.087 369.537 203.01L378.84 212.312L388.341 202.811L379.038 193.509C378.115 192.586 377.945 191.137 378.641 190.015C380.885 186.408 382.518 182.488 383.484 178.383C383.782 177.105 384.918 176.196 386.239 176.196H399.376V162.761H386.239C384.932 162.761 383.782 161.852 383.484 160.574C382.518 156.47 380.885 152.55 378.641 148.942C377.945 147.82 378.115 146.372 379.038 145.449L388.341 136.146L378.84 126.645L369.537 135.947C368.614 136.871 367.165 137.041 366.043 136.345C362.436 134.101 358.516 132.468 354.412 131.502C353.134 131.204 352.225 130.068 352.225 128.747V115.652H338.789V128.789C338.789 130.11 337.881 131.246 336.602 131.545C332.498 132.51 328.592 134.129 324.971 136.388C323.849 137.084 322.414 136.927 321.477 135.99L312.175 126.688L302.673 136.189L311.976 145.491C312.899 146.414 313.069 147.863 312.373 148.985C310.129 152.592 308.496 156.512 307.53 160.617C307.232 161.895 306.096 162.804 304.775 162.804H291.652V176.239H304.789C306.096 176.239 307.246 177.148 307.545 178.426C308.51 182.53 310.129 186.45 312.388 190.058C313.084 191.18 312.913 192.614 311.99 193.551L302.688 202.854L312.189 212.355L321.491 203.053C322.414 202.115 323.863 201.959 324.985 202.655C328.592 204.899 332.512 206.532 336.617 207.498C337.895 207.796 338.804 208.932 338.804 210.253V223.39L338.789 223.348ZM345.507 188.723C334.912 188.723 326.277 180.102 326.277 169.493C326.277 158.884 334.898 150.263 345.507 150.263C356.116 150.263 364.737 158.884 364.737 169.493C364.737 180.102 356.116 188.723 345.507 188.723ZM345.507 155.916C338.023 155.916 331.93 162.008 331.93 169.493C331.93 176.977 338.023 183.07 345.507 183.07C352.992 183.07 359.084 176.977 359.084 169.493C359.084 162.008 352.992 155.916 345.507 155.916Z" fill="url(#paint2_linear_0_1)"/>
<path d="M355.051 229H335.963C334.401 229 333.137 227.736 333.137 226.174V212.398C329.942 211.475 326.86 210.196 323.934 208.577L314.177 218.334C313.069 219.442 311.28 219.442 310.186 218.334L296.68 204.842C296.155 204.317 295.856 203.592 295.856 202.84C295.856 202.087 296.155 201.377 296.68 200.837L306.437 191.08C304.818 188.155 303.54 185.073 302.617 181.877H288.826C287.264 181.877 286 180.613 286 179.051V159.963C286 158.401 287.264 157.137 288.826 157.137H302.602C303.525 153.942 304.804 150.86 306.423 147.934L296.666 138.177C296.14 137.652 295.842 136.927 295.842 136.175C295.842 135.422 296.14 134.712 296.666 134.172L310.186 120.68C311.294 119.572 313.084 119.572 314.177 120.68L323.934 130.437C326.86 128.818 329.942 127.54 333.137 126.602V112.826C333.137 111.264 334.401 110 335.963 110H355.051C356.613 110 357.877 111.264 357.877 112.826V126.602C361.073 127.525 364.155 128.804 367.08 130.437L376.837 120.68C377.945 119.572 379.734 119.572 380.828 120.68L394.334 134.172C394.86 134.698 395.158 135.422 395.158 136.175C395.158 136.927 394.86 137.637 394.334 138.177L384.577 147.934C386.196 150.86 387.475 153.942 388.398 157.137H402.174C403.736 157.137 405 158.401 405 159.963V179.051C405 180.613 403.736 181.877 402.174 181.877H388.398C387.475 185.073 386.196 188.155 384.577 191.08L394.334 200.837C395.442 201.945 395.442 203.734 394.334 204.828L380.828 218.32C379.72 219.428 377.931 219.428 376.837 218.32L367.08 208.563C364.155 210.182 361.073 211.46 357.877 212.383V226.16C357.877 227.722 356.613 228.986 355.051 228.986V229ZM338.789 223.348H352.225V210.211C352.225 208.904 353.134 207.754 354.412 207.455C358.516 206.49 362.436 204.856 366.043 202.612C367.165 201.916 368.614 202.087 369.537 203.01L378.84 212.312L388.341 202.811L379.038 193.509C378.115 192.586 377.945 191.137 378.641 190.015C380.885 186.408 382.518 182.488 383.484 178.383C383.782 177.105 384.918 176.196 386.239 176.196H399.376V162.761H386.239C384.932 162.761 383.782 161.852 383.484 160.574C382.518 156.47 380.885 152.55 378.641 148.942C377.945 147.82 378.115 146.372 379.038 145.449L388.341 136.146L378.84 126.645L369.537 135.947C368.614 136.871 367.165 137.041 366.043 136.345C362.436 134.101 358.516 132.468 354.412 131.502C353.134 131.204 352.225 130.068 352.225 128.747V115.652H338.789V128.789C338.789 130.11 337.881 131.246 336.602 131.545C332.498 132.51 328.592 134.129 324.971 136.388C323.849 137.084 322.414 136.927 321.477 135.99L312.175 126.688L302.673 136.189L311.976 145.491C312.899 146.414 313.069 147.863 312.373 148.985C310.129 152.592 308.496 156.512 307.53 160.617C307.232 161.895 306.096 162.804 304.775 162.804H291.652V176.239H304.789C306.096 176.239 307.246 177.148 307.545 178.426C308.51 182.53 310.129 186.45 312.388 190.058C313.084 191.18 312.913 192.614 311.99 193.551L302.688 202.854L312.189 212.355L321.491 203.053C322.414 202.115 323.863 201.959 324.985 202.655C328.592 204.899 332.512 206.532 336.617 207.498C337.895 207.796 338.804 208.932 338.804 210.253V223.39L338.789 223.348ZM345.507 188.723C334.912 188.723 326.277 180.102 326.277 169.493C326.277 158.884 334.898 150.263 345.507 150.263C356.116 150.263 364.737 158.884 364.737 169.493C364.737 180.102 356.116 188.723 345.507 188.723ZM345.507 155.916C338.023 155.916 331.93 162.008 331.93 169.493C331.93 176.977 338.023 183.07 345.507 183.07C352.992 183.07 359.084 176.977 359.084 169.493C359.084 162.008 352.992 155.916 345.507 155.916Z" fill="url(#paint3_linear_0_1)"/>
</g>
<defs>
<linearGradient id="paint0_linear_0_1" x1="268.843" y1="72.1984" x2="428.024" y2="274.89" gradientUnits="userSpaceOnUse">
<stop stop-color="white"/>
<stop offset="1" stop-color="#D7D6D6"/>
</linearGradient>
<radialGradient id="paint1_radial_0_1" cx="0" cy="0" r="1" gradientUnits="userSpaceOnUse" gradientTransform="translate(59.5 59.5) rotate(90) scale(59.5)">
<stop stop-color="white"/>
<stop offset="1" stop-color="white" stop-opacity="0"/>
</radialGradient>
<linearGradient id="paint2_linear_0_1" x1="345.5" y1="110" x2="345.5" y2="229" gradientUnits="userSpaceOnUse">
<stop stop-color="#5DBEA9"/>
<stop offset="1" stop-color="#56BAFB"/>
</linearGradient>
<linearGradient id="paint3_linear_0_1" x1="345.5" y1="110" x2="345.5" y2="229" gradientUnits="userSpaceOnUse">
<stop stop-color="#5DBEAE"/>
<stop offset="1" stop-color="#5ABCE9"/>
</linearGradient>
<clipPath id="clip0_0_1">
<rect width="119" height="119" fill="white" transform="translate(286 110)"/>
</clipPath>
</defs>
</svg>
