<svg width="513" height="337" viewBox="0 0 513 337" fill="none" xmlns="http://www.w3.org/2000/svg">
<path d="M310.879 172.831C310.929 171.311 310.995 169.791 310.995 168.255C310.995 89.28 247.023 25.2603 168.114 25.2603C89.2047 25.2603 25.2383 89.28 25.2383 168.255C25.2383 247.23 89.2399 311.25 168.114 311.25C168.416 311.25 168.718 311.23 169.019 311.225C213.456 310.948 254.522 290.184 281.245 255.541C281.3 255.466 281.36 255.395 281.416 255.32C282.261 254.222 283.085 253.105 283.9 251.982C284.056 251.766 284.207 251.544 284.363 251.328C285.872 249.219 287.32 247.064 288.719 244.875C288.814 244.729 288.91 244.583 289.005 244.437C295.021 234.898 302.59 226.632 311.281 219.993C326.959 207.932 436.815 201.065 457.185 201.065C473.013 201.065 488.202 205.198 501.546 212.699C505.358 214.848 509.02 217.264 512.515 219.937C507.078 204.881 504.051 188.984 503.583 172.826H310.879V172.831Z" fill="#8DB833"/>
<path d="M252.171 252.381C298.594 205.919 298.594 130.589 252.171 84.127C205.747 37.6649 130.48 37.6649 84.0569 84.127C37.6336 130.589 37.6336 205.919 84.0569 252.381C130.48 298.843 205.747 298.843 252.171 252.381Z" fill="#F2F2F2"/>
<path d="M205.856 167.982C205.856 147.114 188.882 130.14 168.022 130.14C147.163 130.14 130.18 147.122 130.18 167.982C130.18 188.842 147.154 205.816 168.014 205.816C188.873 205.816 205.847 188.842 205.847 167.982H205.856ZM136.925 167.982C136.925 150.839 150.879 136.885 168.022 136.885C185.166 136.885 199.12 150.839 199.12 167.982C199.12 185.126 185.166 199.071 168.022 199.071C150.879 199.071 136.925 185.126 136.925 167.982Z" fill="url(#paint0_linear_0_1)"/>
<path d="M161.599 118.366C160.634 119.679 160.59 121.475 161.76 122.663C162.421 123.333 163.297 123.672 164.163 123.672C165.03 123.672 165.87 123.342 166.531 122.698L172.534 116.776C173.168 116.15 173.526 115.293 173.534 114.39C173.543 113.497 173.195 112.639 172.561 111.996L166.638 106.002C165.325 104.68 163.189 104.662 161.867 105.975C160.545 107.288 160.527 109.423 161.841 110.754L162.332 111.255C133.557 114.113 111 138.457 111 167.982C111 169.849 112.51 171.359 114.368 171.359C116.226 171.359 117.736 169.849 117.736 167.982C117.736 142.459 136.925 121.555 161.599 118.357V118.366Z" fill="url(#paint1_linear_0_1)"/>
<path d="M225.036 167.982C225.036 166.115 223.526 164.605 221.668 164.605C219.81 164.605 218.3 166.115 218.3 167.982C218.3 192.844 200.121 213.4 176.384 217.411C177.376 216.053 177.34 214.186 176.081 213.007C174.723 211.729 172.579 211.81 171.31 213.168L165.557 219.323C165.557 219.323 165.548 219.385 165.521 219.403C164.994 220.002 164.646 220.761 164.646 221.619C164.646 221.646 164.664 221.663 164.664 221.69C164.664 221.735 164.69 221.771 164.69 221.815C164.744 222.691 165.101 223.468 165.7 224.04C165.709 224.049 165.7 224.067 165.718 224.075L171.873 229.829C172.525 230.436 173.347 230.74 174.178 230.74C175.08 230.74 175.973 230.374 176.634 229.668C177.912 228.31 177.841 226.175 176.483 224.906L175.911 224.379C203.614 220.52 225.036 196.73 225.036 167.973V167.982Z" fill="url(#paint2_linear_0_1)"/>
<path d="M195.1 171.359C196.958 171.359 198.468 169.849 198.468 167.982C198.468 166.115 196.958 164.605 195.1 164.605H171.39V146.47C171.39 144.603 169.881 143.094 168.022 143.094C166.164 143.094 164.655 144.603 164.655 146.47V167.982C164.655 169.849 166.164 171.359 168.022 171.359H195.1V171.359Z" fill="url(#paint3_linear_0_1)"/>
<defs>
<linearGradient id="paint0_linear_0_1" x1="168.018" y1="130.14" x2="168.018" y2="205.815" gradientUnits="userSpaceOnUse">
<stop stop-color="#5DBEA9"/>
<stop offset="1" stop-color="#57BBF8"/>
</linearGradient>
<linearGradient id="paint1_linear_0_1" x1="142.267" y1="105" x2="142.267" y2="171.359" gradientUnits="userSpaceOnUse">
<stop stop-color="#5DBEA9"/>
<stop offset="1" stop-color="#57BBF8"/>
</linearGradient>
<linearGradient id="paint2_linear_0_1" x1="194.841" y1="164.605" x2="194.841" y2="230.74" gradientUnits="userSpaceOnUse">
<stop stop-color="#5DBEA9"/>
<stop offset="1" stop-color="#57BBF8"/>
</linearGradient>
<linearGradient id="paint3_linear_0_1" x1="181.561" y1="143.094" x2="181.561" y2="171.359" gradientUnits="userSpaceOnUse">
<stop stop-color="#5DBEA9"/>
<stop offset="1" stop-color="#57BBF8"/>
</linearGradient>
</defs>
</svg>
