<svg width="211" height="212" viewBox="0 0 211 212" fill="none" xmlns="http://www.w3.org/2000/svg">
<path d="M158.25 158.382C187.383 129.225 187.383 81.9515 158.25 52.7942C129.117 23.6368 81.883 23.6368 52.75 52.7942C23.617 81.9515 23.617 129.225 52.75 158.382C81.883 187.54 129.117 187.54 158.25 158.382Z" fill="#F2F2F2"/>
<path d="M139.543 78.9922L108.418 66.0234C107.445 65.6992 106.473 65.5371 105.5 65.5371C104.365 65.5371 103.393 65.6992 102.42 66.0234L71.2949 78.9922C68.377 80.2891 66.5938 83.0449 66.5938 86.125C66.5938 118.385 85.0742 140.594 102.42 147.889C104.365 148.699 106.473 148.699 108.418 147.889C122.359 142.053 144.406 122.113 144.406 86.125C144.406 83.0449 142.461 80.2891 139.543 78.9922ZM105.5 137.838V76.0742L133.869 87.9082C133.383 112.387 120.576 130.219 105.5 137.838Z" fill="#2E2E2E"/>
</svg>
